<?xml version="1.0" encoding="utf-8" standalone="no"?>
<!DOCTYPE svg PUBLIC "-//W3C//DTD SVG 1.1//EN"
  "http://www.w3.org/Graphics/SVG/1.1/DTD/svg11.dtd">
<!-- Created with matplotlib (https://matplotlib.org/) -->
<svg height="288pt" version="1.1" viewBox="0 0 576 288" width="576pt" xmlns="http://www.w3.org/2000/svg" xmlns:xlink="http://www.w3.org/1999/xlink">
 <metadata>
  <rdf:RDF xmlns:cc="http://creativecommons.org/ns#" xmlns:dc="http://purl.org/dc/elements/1.1/" xmlns:rdf="http://www.w3.org/1999/02/22-rdf-syntax-ns#">
   <cc:Work>
    <dc:type rdf:resource="http://purl.org/dc/dcmitype/StillImage"/>
    <dc:date>2021-06-12T16:23:00.312399</dc:date>
    <dc:format>image/svg+xml</dc:format>
    <dc:creator>
     <cc:Agent>
      <dc:title>Matplotlib v3.3.4, https://matplotlib.org/</dc:title>
     </cc:Agent>
    </dc:creator>
   </cc:Work>
  </rdf:RDF>
 </metadata>
 <defs>
  <style type="text/css">*{stroke-linecap:butt;stroke-linejoin:round;}</style>
 </defs>
 <g id="figure_1">
  <g id="patch_1">
   <path d="M 0 288 
L 576 288 
L 576 0 
L 0 0 
z
" style="fill:none;"/>
  </g>
  <g id="axes_1">
   <g id="line2d_1">
    <path clip-path="url(#p134349b456)" d="M 86.073434 150.531317 
L 53.416847 202.781857 
" style="fill:none;stroke:#000000;stroke-linecap:square;stroke-width:0.75;"/>
   </g>
   <g id="line2d_2">
    <path clip-path="url(#p134349b456)" d="M 86.073434 150.531317 
L 118.730022 202.781857 
" style="fill:none;stroke:#000000;stroke-linecap:square;stroke-width:0.75;"/>
   </g>
   <g id="line2d_3">
    <path clip-path="url(#p134349b456)" d="M 249.356371 202.781857 
L 233.028078 255.032397 
" style="fill:none;stroke:#000000;stroke-linecap:square;stroke-width:0.75;"/>
   </g>
   <g id="line2d_4">
    <path clip-path="url(#p134349b456)" d="M 249.356371 202.781857 
L 265.684665 255.032397 
" style="fill:none;stroke:#000000;stroke-linecap:square;stroke-width:0.75;"/>
   </g>
   <g id="line2d_5">
    <path clip-path="url(#p134349b456)" d="M 216.699784 150.531317 
L 184.043197 202.781857 
" style="fill:none;stroke:#000000;stroke-linecap:square;stroke-width:0.75;"/>
   </g>
   <g id="line2d_6">
    <path clip-path="url(#p134349b456)" d="M 216.699784 150.531317 
L 249.356371 202.781857 
" style="fill:none;stroke:#000000;stroke-linecap:square;stroke-width:0.75;"/>
   </g>
   <g id="line2d_7">
    <path clip-path="url(#p134349b456)" d="M 151.386609 98.280778 
L 86.073434 150.531317 
" style="fill:none;stroke:#000000;stroke-linecap:square;stroke-width:0.75;"/>
   </g>
   <g id="line2d_8">
    <path clip-path="url(#p134349b456)" d="M 151.386609 98.280778 
L 216.699784 150.531317 
" style="fill:none;stroke:#000000;stroke-linecap:square;stroke-width:0.75;"/>
   </g>
   <g id="line2d_9">
    <path clip-path="url(#p134349b456)" d="M 347.326134 150.531317 
L 314.669546 202.781857 
" style="fill:none;stroke:#000000;stroke-linecap:square;stroke-width:0.75;"/>
   </g>
   <g id="line2d_10">
    <path clip-path="url(#p134349b456)" d="M 347.326134 150.531317 
L 379.982721 202.781857 
" style="fill:none;stroke:#000000;stroke-linecap:square;stroke-width:0.75;"/>
   </g>
   <g id="line2d_11">
    <path clip-path="url(#p134349b456)" d="M 510.609071 202.781857 
L 494.280778 255.032397 
" style="fill:none;stroke:#000000;stroke-linecap:square;stroke-width:0.75;"/>
   </g>
   <g id="line2d_12">
    <path clip-path="url(#p134349b456)" d="M 510.609071 202.781857 
L 526.937365 255.032397 
" style="fill:none;stroke:#000000;stroke-linecap:square;stroke-width:0.75;"/>
   </g>
   <g id="line2d_13">
    <path clip-path="url(#p134349b456)" d="M 477.952484 150.531317 
L 445.295896 202.781857 
" style="fill:none;stroke:#000000;stroke-linecap:square;stroke-width:0.75;"/>
   </g>
   <g id="line2d_14">
    <path clip-path="url(#p134349b456)" d="M 477.952484 150.531317 
L 510.609071 202.781857 
" style="fill:none;stroke:#000000;stroke-linecap:square;stroke-width:0.75;"/>
   </g>
   <g id="line2d_15">
    <path clip-path="url(#p134349b456)" d="M 412.639309 98.280778 
L 347.326134 150.531317 
" style="fill:none;stroke:#000000;stroke-linecap:square;stroke-width:0.75;"/>
   </g>
   <g id="line2d_16">
    <path clip-path="url(#p134349b456)" d="M 412.639309 98.280778 
L 477.952484 150.531317 
" style="fill:none;stroke:#000000;stroke-linecap:square;stroke-width:0.75;"/>
   </g>
   <g id="line2d_17">
    <path clip-path="url(#p134349b456)" d="M 282.012959 46.030238 
L 151.386609 98.280778 
" style="fill:none;stroke:#000000;stroke-linecap:square;stroke-width:0.75;"/>
   </g>
   <g id="line2d_18">
    <path clip-path="url(#p134349b456)" d="M 282.012959 46.030238 
L 412.639309 98.280778 
" style="fill:none;stroke:#000000;stroke-linecap:square;stroke-width:0.75;"/>
   </g>
   <g id="patch_2">
    <path clip-path="url(#p134349b456)" d="M 53.416847 220.198704 
C 58.035848 220.198704 62.46629 218.363555 65.732417 215.097428 
C 68.998544 211.8313 70.833693 207.400859 70.833693 202.781857 
C 70.833693 198.162856 68.998544 193.732415 65.732417 190.466287 
C 62.46629 187.20016 58.035848 185.365011 53.416847 185.365011 
C 48.797845 185.365011 44.367404 187.20016 41.101276 190.466287 
C 37.835149 193.732415 36 198.162856 36 202.781857 
C 36 207.400859 37.835149 211.8313 41.101276 215.097428 
C 44.367404 218.363555 48.797845 220.198704 53.416847 220.198704 
z
" style="fill:#ffffff;stroke:#000000;stroke-linejoin:miter;"/>
   </g>
   <g id="patch_3">
    <path clip-path="url(#p134349b456)" d="M 118.730022 220.198704 
C 123.349023 220.198704 127.779465 218.363555 131.045592 215.097428 
C 134.311719 211.8313 136.146868 207.400859 136.146868 202.781857 
C 136.146868 198.162856 134.311719 193.732415 131.045592 190.466287 
C 127.779465 187.20016 123.349023 185.365011 118.730022 185.365011 
C 114.11102 185.365011 109.680579 187.20016 106.414451 190.466287 
C 103.148324 193.732415 101.313175 198.162856 101.313175 202.781857 
C 101.313175 207.400859 103.148324 211.8313 106.414451 215.097428 
C 109.680579 218.363555 114.11102 220.198704 118.730022 220.198704 
z
" style="fill:#ffffff;stroke:#000000;stroke-linejoin:miter;"/>
   </g>
   <g id="patch_4">
    <path clip-path="url(#p134349b456)" d="M 86.073434 176.656587 
C 93.001937 176.656587 99.647599 173.903864 104.54679 169.004673 
C 109.445981 164.105482 112.198704 157.45982 112.198704 150.531317 
C 112.198704 143.602815 109.445981 136.957153 104.54679 132.057962 
C 99.647599 127.158771 93.001937 124.406048 86.073434 124.406048 
C 79.144932 124.406048 72.49927 127.158771 67.600079 132.057962 
C 62.700887 136.957153 59.948164 143.602815 59.948164 150.531317 
C 59.948164 157.45982 62.700887 164.105482 67.600079 169.004673 
C 72.49927 173.903864 79.144932 176.656587 86.073434 176.656587 
z
" style="fill:#ffffff;stroke:#000000;stroke-linejoin:miter;"/>
   </g>
   <g id="patch_5">
    <path clip-path="url(#p134349b456)" d="M 184.043197 220.198704 
C 188.662198 220.198704 193.092639 218.363555 196.358767 215.097428 
C 199.624894 211.8313 201.460043 207.400859 201.460043 202.781857 
C 201.460043 198.162856 199.624894 193.732415 196.358767 190.466287 
C 193.092639 187.20016 188.662198 185.365011 184.043197 185.365011 
C 179.424195 185.365011 174.993754 187.20016 171.727626 190.466287 
C 168.461499 193.732415 166.62635 198.162856 166.62635 202.781857 
C 166.62635 207.400859 168.461499 211.8313 171.727626 215.097428 
C 174.993754 218.363555 179.424195 220.198704 184.043197 220.198704 
z
" style="fill:#ffffff;stroke:#000000;stroke-linejoin:miter;"/>
   </g>
   <g id="patch_6">
    <path clip-path="url(#p134349b456)" d="M 233.028078 268.095032 
C 236.492329 268.095032 239.81516 266.718671 242.264756 264.269075 
C 244.714351 261.81948 246.090713 258.496649 246.090713 255.032397 
C 246.090713 251.568146 244.714351 248.245315 242.264756 245.79572 
C 239.81516 243.346124 236.492329 241.969762 233.028078 241.969762 
C 229.563826 241.969762 226.240996 243.346124 223.7914 245.79572 
C 221.341804 248.245315 219.965443 251.568146 219.965443 255.032397 
C 219.965443 258.496649 221.341804 261.81948 223.7914 264.269075 
C 226.240996 266.718671 229.563826 268.095032 233.028078 268.095032 
z
" style="fill:#ffffff;stroke:#000000;stroke-linejoin:miter;"/>
   </g>
   <g id="patch_7">
    <path clip-path="url(#p134349b456)" d="M 265.684665 268.095032 
C 269.148917 268.095032 272.471747 266.718671 274.921343 264.269075 
C 277.370939 261.81948 278.7473 258.496649 278.7473 255.032397 
C 278.7473 251.568146 277.370939 248.245315 274.921343 245.79572 
C 272.471747 243.346124 269.148917 241.969762 265.684665 241.969762 
C 262.220414 241.969762 258.897583 243.346124 256.447987 245.79572 
C 253.998392 248.245315 252.62203 251.568146 252.62203 255.032397 
C 252.62203 258.496649 253.998392 261.81948 256.447987 264.269075 
C 258.897583 266.718671 262.220414 268.095032 265.684665 268.095032 
z
" style="fill:#ffffff;stroke:#000000;stroke-linejoin:miter;"/>
   </g>
   <g id="patch_8">
    <path clip-path="url(#p134349b456)" d="M 249.356371 220.198704 
C 253.975373 220.198704 258.405814 218.363555 261.671942 215.097428 
C 264.938069 211.8313 266.773218 207.400859 266.773218 202.781857 
C 266.773218 198.162856 264.938069 193.732415 261.671942 190.466287 
C 258.405814 187.20016 253.975373 185.365011 249.356371 185.365011 
C 244.73737 185.365011 240.306929 187.20016 237.040801 190.466287 
C 233.774674 193.732415 231.939525 198.162856 231.939525 202.781857 
C 231.939525 207.400859 233.774674 211.8313 237.040801 215.097428 
C 240.306929 218.363555 244.73737 220.198704 249.356371 220.198704 
z
" style="fill:#ffffff;stroke:#000000;stroke-linejoin:miter;"/>
   </g>
   <g id="patch_9">
    <path clip-path="url(#p134349b456)" d="M 216.699784 176.656587 
C 223.628287 176.656587 230.273948 173.903864 235.17314 169.004673 
C 240.072331 164.105482 242.825054 157.45982 242.825054 150.531317 
C 242.825054 143.602815 240.072331 136.957153 235.17314 132.057962 
C 230.273948 127.158771 223.628287 124.406048 216.699784 124.406048 
C 209.771281 124.406048 203.12562 127.158771 198.226428 132.057962 
C 193.327237 136.957153 190.574514 143.602815 190.574514 150.531317 
C 190.574514 157.45982 193.327237 164.105482 198.226428 169.004673 
C 203.12562 173.903864 209.771281 176.656587 216.699784 176.656587 
z
" style="fill:#ffffff;stroke:#000000;stroke-linejoin:miter;"/>
   </g>
   <g id="patch_10">
    <path clip-path="url(#p134349b456)" d="M 151.386609 124.406048 
C 158.315112 124.406048 164.960773 121.653324 169.859965 116.754133 
C 174.759156 111.854942 177.511879 105.20928 177.511879 98.280778 
C 177.511879 91.352275 174.759156 84.706613 169.859965 79.807422 
C 164.960773 74.908231 158.315112 72.155508 151.386609 72.155508 
C 144.458106 72.155508 137.812445 74.908231 132.913254 79.807422 
C 128.014062 84.706613 125.261339 91.352275 125.261339 98.280778 
C 125.261339 105.20928 128.014062 111.854942 132.913254 116.754133 
C 137.812445 121.653324 144.458106 124.406048 151.386609 124.406048 
z
" style="fill:#ffffff;stroke:#000000;stroke-linejoin:miter;"/>
   </g>
   <g id="patch_11">
    <path clip-path="url(#p134349b456)" d="M 314.669546 220.198704 
C 319.288548 220.198704 323.718989 218.363555 326.985117 215.097428 
C 330.251244 211.8313 332.086393 207.400859 332.086393 202.781857 
C 332.086393 198.162856 330.251244 193.732415 326.985117 190.466287 
C 323.718989 187.20016 319.288548 185.365011 314.669546 185.365011 
C 310.050545 185.365011 305.620104 187.20016 302.353976 190.466287 
C 299.087849 193.732415 297.2527 198.162856 297.2527 202.781857 
C 297.2527 207.400859 299.087849 211.8313 302.353976 215.097428 
C 305.620104 218.363555 310.050545 220.198704 314.669546 220.198704 
z
" style="fill:#ffffff;stroke:#000000;stroke-linejoin:miter;"/>
   </g>
   <g id="patch_12">
    <path clip-path="url(#p134349b456)" d="M 379.982721 220.198704 
C 384.601723 220.198704 389.032164 218.363555 392.298292 215.097428 
C 395.564419 211.8313 397.399568 207.400859 397.399568 202.781857 
C 397.399568 198.162856 395.564419 193.732415 392.298292 190.466287 
C 389.032164 187.20016 384.601723 185.365011 379.982721 185.365011 
C 375.36372 185.365011 370.933278 187.20016 367.667151 190.466287 
C 364.401024 193.732415 362.565875 198.162856 362.565875 202.781857 
C 362.565875 207.400859 364.401024 211.8313 367.667151 215.097428 
C 370.933278 218.363555 375.36372 220.198704 379.982721 220.198704 
z
" style="fill:#ffffff;stroke:#000000;stroke-linejoin:miter;"/>
   </g>
   <g id="patch_13">
    <path clip-path="url(#p134349b456)" d="M 347.326134 176.656587 
C 354.254636 176.656587 360.900298 173.903864 365.799489 169.004673 
C 370.698681 164.105482 373.451404 157.45982 373.451404 150.531317 
C 373.451404 143.602815 370.698681 136.957153 365.799489 132.057962 
C 360.900298 127.158771 354.254636 124.406048 347.326134 124.406048 
C 340.397631 124.406048 333.75197 127.158771 328.852778 132.057962 
C 323.953587 136.957153 321.200864 143.602815 321.200864 150.531317 
C 321.200864 157.45982 323.953587 164.105482 328.852778 169.004673 
C 333.75197 173.903864 340.397631 176.656587 347.326134 176.656587 
z
" style="fill:#ffffff;stroke:#000000;stroke-linejoin:miter;"/>
   </g>
   <g id="patch_14">
    <path clip-path="url(#p134349b456)" d="M 445.295896 220.198704 
C 449.914898 220.198704 454.345339 218.363555 457.611467 215.097428 
C 460.877594 211.8313 462.712743 207.400859 462.712743 202.781857 
C 462.712743 198.162856 460.877594 193.732415 457.611467 190.466287 
C 454.345339 187.20016 449.914898 185.365011 445.295896 185.365011 
C 440.676895 185.365011 436.246453 187.20016 432.980326 190.466287 
C 429.714199 193.732415 427.87905 198.162856 427.87905 202.781857 
C 427.87905 207.400859 429.714199 211.8313 432.980326 215.097428 
C 436.246453 218.363555 440.676895 220.198704 445.295896 220.198704 
z
" style="fill:#ffffff;stroke:#000000;stroke-linejoin:miter;"/>
   </g>
   <g id="patch_15">
    <path clip-path="url(#p134349b456)" d="M 494.280778 268.095032 
C 497.745029 268.095032 501.06786 266.718671 503.517455 264.269075 
C 505.967051 261.81948 507.343413 258.496649 507.343413 255.032397 
C 507.343413 251.568146 505.967051 248.245315 503.517455 245.79572 
C 501.06786 243.346124 497.745029 241.969762 494.280778 241.969762 
C 490.816526 241.969762 487.493695 243.346124 485.0441 245.79572 
C 482.594504 248.245315 481.218143 251.568146 481.218143 255.032397 
C 481.218143 258.496649 482.594504 261.81948 485.0441 264.269075 
C 487.493695 266.718671 490.816526 268.095032 494.280778 268.095032 
z
" style="fill:#ffffff;stroke:#000000;stroke-linejoin:miter;"/>
   </g>
   <g id="patch_16">
    <path clip-path="url(#p134349b456)" d="M 526.937365 268.095032 
C 530.401616 268.095032 533.724447 266.718671 536.174043 264.269075 
C 538.623638 261.81948 540 258.496649 540 255.032397 
C 540 251.568146 538.623638 248.245315 536.174043 245.79572 
C 533.724447 243.346124 530.401616 241.969762 526.937365 241.969762 
C 523.473114 241.969762 520.150283 243.346124 517.700687 245.79572 
C 515.251092 248.245315 513.87473 251.568146 513.87473 255.032397 
C 513.87473 258.496649 515.251092 261.81948 517.700687 264.269075 
C 520.150283 266.718671 523.473114 268.095032 526.937365 268.095032 
z
" style="fill:#ffffff;stroke:#000000;stroke-linejoin:miter;"/>
   </g>
   <g id="patch_17">
    <path clip-path="url(#p134349b456)" d="M 510.609071 220.198704 
C 515.228073 220.198704 519.658514 218.363555 522.924642 215.097428 
C 526.190769 211.8313 528.025918 207.400859 528.025918 202.781857 
C 528.025918 198.162856 526.190769 193.732415 522.924642 190.466287 
C 519.658514 187.20016 515.228073 185.365011 510.609071 185.365011 
C 505.99007 185.365011 501.559628 187.20016 498.293501 190.466287 
C 495.027373 193.732415 493.192225 198.162856 493.192225 202.781857 
C 493.192225 207.400859 495.027373 211.8313 498.293501 215.097428 
C 501.559628 218.363555 505.99007 220.198704 510.609071 220.198704 
z
" style="fill:#ffffff;stroke:#000000;stroke-linejoin:miter;"/>
   </g>
   <g id="patch_18">
    <path clip-path="url(#p134349b456)" d="M 477.952484 176.656587 
C 484.880986 176.656587 491.526648 173.903864 496.425839 169.004673 
C 501.325031 164.105482 504.077754 157.45982 504.077754 150.531317 
C 504.077754 143.602815 501.325031 136.957153 496.425839 132.057962 
C 491.526648 127.158771 484.880986 124.406048 477.952484 124.406048 
C 471.023981 124.406048 464.378319 127.158771 459.479128 132.057962 
C 454.579937 136.957153 451.827214 143.602815 451.827214 150.531317 
C 451.827214 157.45982 454.579937 164.105482 459.479128 169.004673 
C 464.378319 173.903864 471.023981 176.656587 477.952484 176.656587 
z
" style="fill:#ffffff;stroke:#000000;stroke-linejoin:miter;"/>
   </g>
   <g id="patch_19">
    <path clip-path="url(#p134349b456)" d="M 412.639309 124.406048 
C 419.567811 124.406048 426.213473 121.653324 431.112664 116.754133 
C 436.011856 111.854942 438.764579 105.20928 438.764579 98.280778 
C 438.764579 91.352275 436.011856 84.706613 431.112664 79.807422 
C 426.213473 74.908231 419.567811 72.155508 412.639309 72.155508 
C 405.710806 72.155508 399.065144 74.908231 394.165953 79.807422 
C 389.266762 84.706613 386.514039 91.352275 386.514039 98.280778 
C 386.514039 105.20928 389.266762 111.854942 394.165953 116.754133 
C 399.065144 121.653324 405.710806 124.406048 412.639309 124.406048 
z
" style="fill:#ffffff;stroke:#000000;stroke-linejoin:miter;"/>
   </g>
   <g id="patch_20">
    <path clip-path="url(#p134349b456)" d="M 282.012959 72.155508 
C 288.941462 72.155508 295.587123 69.402784 300.486315 64.503593 
C 305.385506 59.604402 308.138229 52.95874 308.138229 46.030238 
C 308.138229 39.101735 305.385506 32.456073 300.486315 27.556882 
C 295.587123 22.657691 288.941462 19.904968 282.012959 19.904968 
C 275.084456 19.904968 268.438795 22.657691 263.539603 27.556882 
C 258.640412 32.456073 255.887689 39.101735 255.887689 46.030238 
C 255.887689 52.95874 258.640412 59.604402 263.539603 64.503593 
C 268.438795 69.402784 275.084456 72.155508 282.012959 72.155508 
z
" style="fill:#ffffff;stroke:#000000;stroke-linejoin:miter;"/>
   </g>
   <g id="text_1">
    <!-- 8 -->
    <g transform="translate(47.669287 209.574428)scale(0.2 -0.2)">
     <defs>
      <path d="M 46.578125 19.921875 
Q 46.578125 27.734375 42.6875 32.046875 
Q 38.8125 36.375 31.78125 36.375 
Q 24.75 36.375 20.875 32.046875 
Q 17 27.734375 17 19.921875 
Q 17 12.0625 20.875 7.734375 
Q 24.75 3.421875 31.78125 3.421875 
Q 38.8125 3.421875 42.6875 7.734375 
Q 46.578125 12.0625 46.578125 19.921875 
z
M 44.578125 55.328125 
Q 44.578125 61.96875 41.203125 65.671875 
Q 37.84375 69.390625 31.78125 69.390625 
Q 25.78125 69.390625 22.390625 65.671875 
Q 19 61.96875 19 55.328125 
Q 19 48.640625 22.390625 44.921875 
Q 25.78125 41.21875 31.78125 41.21875 
Q 37.84375 41.21875 41.203125 44.921875 
Q 44.578125 48.640625 44.578125 55.328125 
z
M 39.3125 38.8125 
Q 47.609375 37.703125 52.25 32.6875 
Q 56.890625 27.6875 56.890625 19.921875 
Q 56.890625 9.671875 50.390625 4.125 
Q 43.890625 -1.421875 31.78125 -1.421875 
Q 19.734375 -1.421875 13.203125 4.125 
Q 6.6875 9.671875 6.6875 19.921875 
Q 6.6875 27.6875 11.328125 32.6875 
Q 15.96875 37.703125 24.3125 38.8125 
Q 16.9375 40.140625 13 44.40625 
Q 9.078125 48.6875 9.078125 55.328125 
Q 9.078125 64.109375 15.125 69.15625 
Q 21.1875 74.21875 31.78125 74.21875 
Q 42.390625 74.21875 48.4375 69.15625 
Q 54.5 64.109375 54.5 55.328125 
Q 54.5 48.6875 50.5625 44.40625 
Q 46.625 40.140625 39.3125 38.8125 
z
" id="BitstreamVeraSerif-Roman-56"/>
     </defs>
     <use xlink:href="#BitstreamVeraSerif-Roman-56"/>
    </g>
   </g>
   <g id="text_2">
    <!-- 4 -->
    <g transform="translate(112.982462 209.574428)scale(0.2 -0.2)">
     <defs>
      <path d="M 34.90625 24.703125 
L 34.90625 63.484375 
L 10.015625 24.703125 
z
M 56.390625 0 
L 23.1875 0 
L 23.1875 5.171875 
L 34.90625 5.171875 
L 34.90625 19.484375 
L 3.078125 19.484375 
L 3.078125 24.8125 
L 35.015625 74.21875 
L 44.671875 74.21875 
L 44.671875 24.703125 
L 58.59375 24.703125 
L 58.59375 19.484375 
L 44.671875 19.484375 
L 44.671875 5.171875 
L 56.390625 5.171875 
z
" id="BitstreamVeraSerif-Roman-52"/>
     </defs>
     <use xlink:href="#BitstreamVeraSerif-Roman-52"/>
    </g>
   </g>
   <g id="text_3">
    <!-- 2 -->
    <g transform="translate(178.295637 209.574428)scale(0.2 -0.2)">
     <defs>
      <path d="M 12.796875 55.515625 
L 7.328125 55.515625 
L 7.328125 68.5 
Q 12.546875 71.296875 17.84375 72.75 
Q 23.140625 74.21875 28.21875 74.21875 
Q 39.59375 74.21875 46.1875 68.703125 
Q 52.78125 63.1875 52.78125 53.71875 
Q 52.78125 43.015625 37.84375 28.125 
Q 36.671875 27 36.078125 26.421875 
L 17.671875 8.015625 
L 48.09375 8.015625 
L 48.09375 17 
L 53.8125 17 
L 53.8125 0 
L 6.78125 0 
L 6.78125 5.328125 
L 28.90625 27.390625 
Q 36.234375 34.71875 39.359375 40.84375 
Q 42.484375 46.96875 42.484375 53.71875 
Q 42.484375 61.078125 38.640625 65.234375 
Q 34.8125 69.390625 28.078125 69.390625 
Q 21.09375 69.390625 17.28125 65.921875 
Q 13.484375 62.453125 12.796875 55.515625 
z
" id="BitstreamVeraSerif-Roman-50"/>
     </defs>
     <use xlink:href="#BitstreamVeraSerif-Roman-50"/>
    </g>
   </g>
   <g id="text_4">
    <!-- 5 -->
    <g transform="translate(227.280518 261.824968)scale(0.2 -0.2)">
     <defs>
      <path d="M 50.296875 72.90625 
L 50.296875 64.890625 
L 16.890625 64.890625 
L 16.890625 44 
Q 19.4375 45.75 22.828125 46.625 
Q 26.21875 47.515625 30.421875 47.515625 
Q 42.234375 47.515625 49.0625 40.96875 
Q 55.90625 34.421875 55.90625 23.09375 
Q 55.90625 11.53125 49 5.046875 
Q 42.09375 -1.421875 29.59375 -1.421875 
Q 24.5625 -1.421875 19.28125 -0.1875 
Q 14.015625 1.03125 8.5 3.515625 
L 8.5 17.671875 
L 14.015625 17.671875 
Q 14.453125 10.75 18.421875 7.078125 
Q 22.40625 3.421875 29.59375 3.421875 
Q 37.3125 3.421875 41.453125 8.5 
Q 45.609375 13.578125 45.609375 23.09375 
Q 45.609375 32.5625 41.484375 37.609375 
Q 37.359375 42.671875 29.59375 42.671875 
Q 25.203125 42.671875 21.84375 41.109375 
Q 18.5 39.546875 15.921875 36.28125 
L 11.71875 36.28125 
L 11.71875 72.90625 
z
" id="BitstreamVeraSerif-Roman-53"/>
     </defs>
     <use xlink:href="#BitstreamVeraSerif-Roman-53"/>
    </g>
   </g>
   <g id="text_5">
    <!-- 3 -->
    <g transform="translate(259.937106 261.824968)scale(0.2 -0.2)">
     <defs>
      <path d="M 9.71875 69.828125 
Q 15.4375 71.96875 20.671875 73.09375 
Q 25.921875 74.21875 30.515625 74.21875 
Q 41.21875 74.21875 47.21875 69.59375 
Q 53.21875 64.984375 53.21875 56.78125 
Q 53.21875 50.203125 49.0625 45.78125 
Q 44.921875 41.359375 37.3125 39.796875 
Q 46.296875 38.53125 51.25 33.28125 
Q 56.203125 28.03125 56.203125 19.671875 
Q 56.203125 9.46875 49.34375 4.015625 
Q 42.484375 -1.421875 29.59375 -1.421875 
Q 23.875 -1.421875 18.421875 -0.1875 
Q 12.984375 1.03125 7.625 3.515625 
L 7.625 17.671875 
L 13.09375 17.671875 
Q 13.578125 10.640625 17.828125 7.03125 
Q 22.078125 3.421875 29.78125 3.421875 
Q 37.25 3.421875 41.578125 7.734375 
Q 45.90625 12.0625 45.90625 19.578125 
Q 45.90625 28.171875 41.453125 32.59375 
Q 37.015625 37.015625 28.421875 37.015625 
L 23.78125 37.015625 
L 23.78125 42 
L 26.21875 42 
Q 34.765625 42 39.03125 45.53125 
Q 43.3125 49.078125 43.3125 56.203125 
Q 43.3125 62.59375 39.796875 65.984375 
Q 36.28125 69.390625 29.6875 69.390625 
Q 23.09375 69.390625 19.453125 66.265625 
Q 15.828125 63.140625 15.1875 56.984375 
L 9.71875 56.984375 
z
" id="BitstreamVeraSerif-Roman-51"/>
     </defs>
     <use xlink:href="#BitstreamVeraSerif-Roman-51"/>
    </g>
   </g>
   <g id="text_6">
    <!-- 7 -->
    <g transform="translate(308.921987 209.574428)scale(0.2 -0.2)">
     <defs>
      <path d="M 56.390625 67.921875 
L 27.875 0 
L 20.609375 0 
L 47.796875 64.890625 
L 14.109375 64.890625 
L 14.109375 55.90625 
L 8.40625 55.90625 
L 8.40625 72.90625 
L 56.390625 72.90625 
z
" id="BitstreamVeraSerif-Roman-55"/>
     </defs>
     <use xlink:href="#BitstreamVeraSerif-Roman-55"/>
    </g>
   </g>
   <g id="text_7">
    <!-- 9 -->
    <g transform="translate(374.235162 209.574428)scale(0.2 -0.2)">
     <defs>
      <path d="M 46.78125 32.671875 
Q 43.5 29 39.25 27.1875 
Q 35.015625 25.390625 29.6875 25.390625 
Q 18.84375 25.390625 12.5625 31.9375 
Q 6.296875 38.484375 6.296875 49.8125 
Q 6.296875 60.890625 13.109375 67.546875 
Q 19.921875 74.21875 31.296875 74.21875 
Q 43.65625 74.21875 50.265625 65.015625 
Q 56.890625 55.8125 56.890625 38.71875 
Q 56.890625 19.578125 49.015625 9.078125 
Q 41.15625 -1.421875 26.90625 -1.421875 
Q 23.046875 -1.421875 18.796875 -0.6875 
Q 14.546875 0.046875 10.109375 1.515625 
L 10.109375 13.625 
L 15.578125 13.625 
Q 16.21875 8.6875 19.390625 6.046875 
Q 22.5625 3.421875 27.875 3.421875 
Q 37.359375 3.421875 41.984375 10.5625 
Q 46.625 17.71875 46.78125 32.671875 
z
M 30.90625 69.390625 
Q 23.96875 69.390625 20.28125 64.328125 
Q 16.609375 59.28125 16.609375 49.8125 
Q 16.609375 40.328125 20.28125 35.25 
Q 23.96875 30.171875 30.90625 30.171875 
Q 37.84375 30.171875 41.53125 35.078125 
Q 45.21875 39.984375 45.21875 49.21875 
Q 45.21875 58.9375 41.5 64.15625 
Q 37.796875 69.390625 30.90625 69.390625 
z
" id="BitstreamVeraSerif-Roman-57"/>
     </defs>
     <use xlink:href="#BitstreamVeraSerif-Roman-57"/>
    </g>
   </g>
   <g id="text_8">
    <!-- 0 -->
    <g transform="translate(439.548337 209.574428)scale(0.2 -0.2)">
     <defs>
      <path d="M 31.78125 3.421875 
Q 39.265625 3.421875 42.96875 11.625 
Q 46.6875 19.828125 46.6875 36.375 
Q 46.6875 52.984375 42.96875 61.1875 
Q 39.265625 69.390625 31.78125 69.390625 
Q 24.3125 69.390625 20.59375 61.1875 
Q 16.890625 52.984375 16.890625 36.375 
Q 16.890625 19.828125 20.59375 11.625 
Q 24.3125 3.421875 31.78125 3.421875 
z
M 31.78125 -1.421875 
Q 19.921875 -1.421875 13.25 8.53125 
Q 6.59375 18.5 6.59375 36.375 
Q 6.59375 54.296875 13.25 64.25 
Q 19.921875 74.21875 31.78125 74.21875 
Q 43.703125 74.21875 50.34375 64.25 
Q 56.984375 54.296875 56.984375 36.375 
Q 56.984375 18.5 50.34375 8.53125 
Q 43.703125 -1.421875 31.78125 -1.421875 
z
" id="BitstreamVeraSerif-Roman-48"/>
     </defs>
     <use xlink:href="#BitstreamVeraSerif-Roman-48"/>
    </g>
   </g>
   <g id="text_9">
    <!-- 1 -->
    <g transform="translate(488.533218 261.824968)scale(0.2 -0.2)">
     <defs>
      <path d="M 14.203125 0 
L 14.203125 5.171875 
L 26.90625 5.171875 
L 26.90625 65.828125 
L 12.203125 56.296875 
L 12.203125 62.703125 
L 29.984375 74.21875 
L 36.71875 74.21875 
L 36.71875 5.171875 
L 49.421875 5.171875 
L 49.421875 0 
z
" id="BitstreamVeraSerif-Roman-49"/>
     </defs>
     <use xlink:href="#BitstreamVeraSerif-Roman-49"/>
    </g>
   </g>
   <g id="text_10">
    <!-- 6 -->
    <g transform="translate(521.189806 261.824968)scale(0.2 -0.2)">
     <defs>
      <path d="M 32.71875 3.421875 
Q 39.59375 3.421875 43.296875 8.46875 
Q 47.015625 13.53125 47.015625 23 
Q 47.015625 32.46875 43.296875 37.515625 
Q 39.59375 42.578125 32.71875 42.578125 
Q 25.734375 42.578125 22.0625 37.6875 
Q 18.40625 32.8125 18.40625 23.578125 
Q 18.40625 13.875 22.109375 8.640625 
Q 25.828125 3.421875 32.71875 3.421875 
z
M 16.796875 40.140625 
Q 20.125 43.796875 24.3125 45.59375 
Q 28.515625 47.40625 33.796875 47.40625 
Q 44.671875 47.40625 51 40.859375 
Q 57.328125 34.328125 57.328125 23 
Q 57.328125 11.921875 50.515625 5.25 
Q 43.703125 -1.421875 32.328125 -1.421875 
Q 19.96875 -1.421875 13.328125 7.78125 
Q 6.6875 17 6.6875 34.078125 
Q 6.6875 53.21875 14.546875 63.71875 
Q 22.40625 74.21875 36.71875 74.21875 
Q 40.578125 74.21875 44.828125 73.484375 
Q 49.078125 72.75 53.515625 71.296875 
L 53.515625 59.28125 
L 48 59.28125 
Q 47.40625 64.203125 44.234375 66.796875 
Q 41.0625 69.390625 35.6875 69.390625 
Q 26.21875 69.390625 21.578125 62.203125 
Q 16.9375 55.03125 16.796875 40.140625 
z
" id="BitstreamVeraSerif-Roman-54"/>
     </defs>
     <use xlink:href="#BitstreamVeraSerif-Roman-54"/>
    </g>
   </g>
  </g>
 </g>
 <defs>
  <clipPath id="p134349b456">
   <rect height="266.4" width="554.4" x="10.8" y="10.8"/>
  </clipPath>
 </defs>
</svg>
