<?xml version="1.0" encoding="utf-8" standalone="no"?>
<!DOCTYPE svg PUBLIC "-//W3C//DTD SVG 1.1//EN"
  "http://www.w3.org/Graphics/SVG/1.1/DTD/svg11.dtd">
<!-- Created with matplotlib (https://matplotlib.org/) -->
<svg height="360pt" version="1.1" viewBox="0 0 360 360" width="360pt" xmlns="http://www.w3.org/2000/svg" xmlns:xlink="http://www.w3.org/1999/xlink">
 <metadata>
  <rdf:RDF xmlns:cc="http://creativecommons.org/ns#" xmlns:dc="http://purl.org/dc/elements/1.1/" xmlns:rdf="http://www.w3.org/1999/02/22-rdf-syntax-ns#">
   <cc:Work>
    <dc:type rdf:resource="http://purl.org/dc/dcmitype/StillImage"/>
    <dc:date>2021-06-12T16:23:00.240092</dc:date>
    <dc:format>image/svg+xml</dc:format>
    <dc:creator>
     <cc:Agent>
      <dc:title>Matplotlib v3.3.4, https://matplotlib.org/</dc:title>
     </cc:Agent>
    </dc:creator>
   </cc:Work>
  </rdf:RDF>
 </metadata>
 <defs>
  <style type="text/css">*{stroke-linecap:butt;stroke-linejoin:round;}</style>
 </defs>
 <g id="figure_1">
  <g id="patch_1">
   <path d="M 0 360 
L 360 360 
L 360 0 
L 0 0 
z
" style="fill:none;"/>
  </g>
  <g id="axes_1">
   <g id="patch_2">
    <path clip-path="url(#p41f819f348)" d="M 49.125 204.628269 
C 49.125 204.628269 49.125 204.628269 49.125 204.628269 
C 49.125 204.628269 49.125 204.628269 49.125 204.628269 
C 49.125 204.628269 49.125 204.628269 49.125 204.628269 
C 49.125 204.628269 49.125 204.628269 49.125 204.628269 
C 49.125 204.628269 49.125 204.628269 49.125 204.628269 
C 49.125 204.628269 49.125 204.628269 49.125 204.628269 
C 49.125 204.628269 49.125 204.628269 49.125 204.628269 
C 49.125 204.628269 49.125 204.628269 49.125 204.628269 
z
" style="fill:none;stroke:#0000ff;stroke-linejoin:miter;"/>
   </g>
   <g id="patch_3">
    <path clip-path="url(#p41f819f348)" d="M 108.458852 190.879202 
C 108.458852 190.879202 108.458852 190.879202 108.458852 190.879202 
C 108.458852 190.879202 108.458852 190.879202 108.458852 190.879202 
C 108.458852 190.879202 108.458852 190.879202 108.458852 190.879202 
C 108.458852 190.879202 108.458852 190.879202 108.458852 190.879202 
C 108.458852 190.879202 108.458852 190.879202 108.458852 190.879202 
C 108.458852 190.879202 108.458852 190.879202 108.458852 190.879202 
C 108.458852 190.879202 108.458852 190.879202 108.458852 190.879202 
C 108.458852 190.879202 108.458852 190.879202 108.458852 190.879202 
z
" style="fill:none;stroke:#0000ff;stroke-linejoin:miter;"/>
   </g>
   <g id="patch_4">
    <path clip-path="url(#p41f819f348)" d="M 78.791926 233.211922 
C 86.811859 233.211922 94.504395 229.475824 100.175344 222.82646 
C 105.846293 216.177096 109.032646 207.157357 109.032646 197.753735 
C 109.032646 188.350114 105.846293 179.330375 100.175344 172.681011 
C 94.504395 166.031647 86.811859 162.295549 78.791926 162.295549 
C 70.771994 162.295549 63.079457 166.031647 57.408509 172.681011 
C 51.73756 179.330375 48.551207 188.350114 48.551207 197.753735 
C 48.551207 207.157357 51.73756 216.177096 57.408509 222.82646 
C 63.079457 229.475824 70.771994 233.211922 78.791926 233.211922 
z
" style="fill:none;stroke:#000000;stroke-linejoin:miter;"/>
   </g>
   <g id="patch_5">
    <path clip-path="url(#p41f819f348)" d="M 216.610183 253.237837 
C 216.610183 253.237837 216.610183 253.237837 216.610183 253.237837 
C 216.610183 253.237837 216.610183 253.237837 216.610183 253.237837 
C 216.610183 253.237837 216.610183 253.237837 216.610183 253.237837 
C 216.610183 253.237837 216.610183 253.237837 216.610183 253.237837 
C 216.610183 253.237837 216.610183 253.237837 216.610183 253.237837 
C 216.610183 253.237837 216.610183 253.237837 216.610183 253.237837 
C 216.610183 253.237837 216.610183 253.237837 216.610183 253.237837 
C 216.610183 253.237837 216.610183 253.237837 216.610183 253.237837 
z
" style="fill:none;stroke:#0000ff;stroke-linejoin:miter;"/>
   </g>
   <g id="patch_6">
    <path clip-path="url(#p41f819f348)" d="M 236.466438 258.4855 
C 236.466438 258.4855 236.466438 258.4855 236.466438 258.4855 
C 236.466438 258.4855 236.466438 258.4855 236.466438 258.4855 
C 236.466438 258.4855 236.466438 258.4855 236.466438 258.4855 
C 236.466438 258.4855 236.466438 258.4855 236.466438 258.4855 
C 236.466438 258.4855 236.466438 258.4855 236.466438 258.4855 
C 236.466438 258.4855 236.466438 258.4855 236.466438 258.4855 
C 236.466438 258.4855 236.466438 258.4855 236.466438 258.4855 
C 236.466438 258.4855 236.466438 258.4855 236.466438 258.4855 
z
" style="fill:none;stroke:#0000ff;stroke-linejoin:miter;"/>
   </g>
   <g id="patch_7">
    <path clip-path="url(#p41f819f348)" d="M 284.345585 313.075121 
C 284.345585 313.075121 284.345585 313.075121 284.345585 313.075121 
C 284.345585 313.075121 284.345585 313.075121 284.345585 313.075121 
C 284.345585 313.075121 284.345585 313.075121 284.345585 313.075121 
C 284.345585 313.075121 284.345585 313.075121 284.345585 313.075121 
C 284.345585 313.075121 284.345585 313.075121 284.345585 313.075121 
C 284.345585 313.075121 284.345585 313.075121 284.345585 313.075121 
C 284.345585 313.075121 284.345585 313.075121 284.345585 313.075121 
C 284.345585 313.075121 284.345585 313.075121 284.345585 313.075121 
z
" style="fill:none;stroke:#0000ff;stroke-linejoin:miter;"/>
   </g>
   <g id="patch_8">
    <path clip-path="url(#p41f819f348)" d="M 260.406012 324.932906 
C 269.261546 324.932906 277.755572 320.807542 284.01738 313.465377 
C 290.279188 306.123211 293.797529 296.1637 293.797529 285.78031 
C 293.797529 275.39692 290.279188 265.437409 284.01738 258.095244 
C 277.755572 250.753079 269.261546 246.627714 260.406012 246.627714 
C 251.550478 246.627714 243.056451 250.753079 236.794643 258.095244 
C 230.532835 265.437409 227.014494 275.39692 227.014494 285.78031 
C 227.014494 296.1637 230.532835 306.123211 236.794643 313.465377 
C 243.056451 320.807542 251.550478 324.932906 260.406012 324.932906 
z
" style="fill:none;stroke:#000000;stroke-linejoin:miter;"/>
   </g>
   <g id="patch_9">
    <path clip-path="url(#p41f819f348)" d="M 245.807402 334.065891 
C 259.18212 334.065891 272.010845 327.835258 281.468198 316.746215 
C 290.925552 305.657173 296.239384 290.615093 296.239384 274.932819 
C 296.239384 259.250545 290.925552 244.208465 281.468198 233.119423 
C 272.010845 222.030381 259.18212 215.799747 245.807402 215.799747 
C 232.432684 215.799747 219.60396 222.030381 210.146606 233.119423 
C 200.689252 244.208465 195.375421 259.250545 195.375421 274.932819 
C 195.375421 290.615093 200.689252 305.657173 210.146606 316.746215 
C 219.60396 327.835258 232.432684 334.065891 245.807402 334.065891 
z
" style="fill:none;stroke:#000000;stroke-linejoin:miter;"/>
   </g>
   <g id="patch_10">
    <path clip-path="url(#p41f819f348)" d="M 86.782181 144.533393 
C 86.782181 144.533393 86.782181 144.533393 86.782181 144.533393 
C 86.782181 144.533393 86.782181 144.533393 86.782181 144.533393 
C 86.782181 144.533393 86.782181 144.533393 86.782181 144.533393 
C 86.782181 144.533393 86.782181 144.533393 86.782181 144.533393 
C 86.782181 144.533393 86.782181 144.533393 86.782181 144.533393 
C 86.782181 144.533393 86.782181 144.533393 86.782181 144.533393 
C 86.782181 144.533393 86.782181 144.533393 86.782181 144.533393 
C 86.782181 144.533393 86.782181 144.533393 86.782181 144.533393 
z
" style="fill:none;stroke:#0000ff;stroke-linejoin:miter;"/>
   </g>
   <g id="patch_11">
    <path clip-path="url(#p41f819f348)" d="M 57.678437 42.080557 
C 57.678437 42.080557 57.678437 42.080557 57.678437 42.080557 
C 57.678437 42.080557 57.678437 42.080557 57.678437 42.080557 
C 57.678437 42.080557 57.678437 42.080557 57.678437 42.080557 
C 57.678437 42.080557 57.678437 42.080557 57.678437 42.080557 
C 57.678437 42.080557 57.678437 42.080557 57.678437 42.080557 
C 57.678437 42.080557 57.678437 42.080557 57.678437 42.080557 
C 57.678437 42.080557 57.678437 42.080557 57.678437 42.080557 
C 57.678437 42.080557 57.678437 42.080557 57.678437 42.080557 
z
" style="fill:none;stroke:#0000ff;stroke-linejoin:miter;"/>
   </g>
   <g id="patch_12">
    <path clip-path="url(#p41f819f348)" d="M 72.230309 147.300267 
C 84.442512 147.300267 96.156178 141.611193 104.791509 131.485998 
C 113.426841 121.360802 118.2788 107.626163 118.2788 93.306975 
C 118.2788 78.987786 113.426841 65.253147 104.791509 55.127951 
C 96.156178 45.002756 84.442512 39.313682 72.230309 39.313682 
C 60.018107 39.313682 48.30444 45.002756 39.669109 55.127951 
C 31.033778 65.253147 26.181818 78.987786 26.181818 93.306975 
C 26.181818 107.626163 31.033778 121.360802 39.669109 131.485998 
C 48.30444 141.611193 60.018107 147.300267 72.230309 147.300267 
z
" style="fill:none;stroke:#000000;stroke-linejoin:miter;"/>
   </g>
   <g id="patch_13">
    <path clip-path="url(#p41f819f348)" d="M 282.097524 158.818917 
C 282.097524 158.818917 282.097524 158.818917 282.097524 158.818917 
C 282.097524 158.818917 282.097524 158.818917 282.097524 158.818917 
C 282.097524 158.818917 282.097524 158.818917 282.097524 158.818917 
C 282.097524 158.818917 282.097524 158.818917 282.097524 158.818917 
C 282.097524 158.818917 282.097524 158.818917 282.097524 158.818917 
C 282.097524 158.818917 282.097524 158.818917 282.097524 158.818917 
C 282.097524 158.818917 282.097524 158.818917 282.097524 158.818917 
C 282.097524 158.818917 282.097524 158.818917 282.097524 158.818917 
z
" style="fill:none;stroke:#0000ff;stroke-linejoin:miter;"/>
   </g>
   <g id="patch_14">
    <path clip-path="url(#p41f819f348)" d="M 283.472563 111.035669 
C 283.472563 111.035669 283.472563 111.035669 283.472563 111.035669 
C 283.472563 111.035669 283.472563 111.035669 283.472563 111.035669 
C 283.472563 111.035669 283.472563 111.035669 283.472563 111.035669 
C 283.472563 111.035669 283.472563 111.035669 283.472563 111.035669 
C 283.472563 111.035669 283.472563 111.035669 283.472563 111.035669 
C 283.472563 111.035669 283.472563 111.035669 283.472563 111.035669 
C 283.472563 111.035669 283.472563 111.035669 283.472563 111.035669 
C 283.472563 111.035669 283.472563 111.035669 283.472563 111.035669 
z
" style="fill:none;stroke:#0000ff;stroke-linejoin:miter;"/>
   </g>
   <g id="patch_15">
    <path clip-path="url(#p41f819f348)" d="M 256.798397 34.453967 
C 256.798397 34.453967 256.798397 34.453967 256.798397 34.453967 
C 256.798397 34.453967 256.798397 34.453967 256.798397 34.453967 
C 256.798397 34.453967 256.798397 34.453967 256.798397 34.453967 
C 256.798397 34.453967 256.798397 34.453967 256.798397 34.453967 
C 256.798397 34.453967 256.798397 34.453967 256.798397 34.453967 
C 256.798397 34.453967 256.798397 34.453967 256.798397 34.453967 
C 256.798397 34.453967 256.798397 34.453967 256.798397 34.453967 
C 256.798397 34.453967 256.798397 34.453967 256.798397 34.453967 
z
" style="fill:none;stroke:#0000ff;stroke-linejoin:miter;"/>
   </g>
   <g id="patch_16">
    <path clip-path="url(#p41f819f348)" d="M 270.13548 114.105922 
C 279.490534 114.105922 288.463689 109.747855 295.078711 101.991535 
C 301.693734 94.235215 305.410536 83.713911 305.410536 72.744818 
C 305.410536 61.775725 301.693734 51.254421 295.078711 43.498101 
C 288.463689 35.741781 279.490534 31.383715 270.13548 31.383715 
C 260.780426 31.383715 251.807271 35.741781 245.192249 43.498101 
C 238.577227 51.254421 234.860424 61.775725 234.860424 72.744818 
C 234.860424 83.713911 238.577227 94.235215 245.192249 101.991535 
C 251.807271 109.747855 260.780426 114.105922 270.13548 114.105922 
z
" style="fill:none;stroke:#000000;stroke-linejoin:miter;"/>
   </g>
   <g id="patch_17">
    <path clip-path="url(#p41f819f348)" d="M 274.122828 171.430849 
C 289.954221 171.430849 305.139332 164.05577 316.333817 150.929887 
C 327.528303 137.804003 333.818182 119.998987 333.818182 101.436185 
C 333.818182 82.873382 327.528303 65.068366 316.333817 51.942482 
C 305.139332 38.816599 289.954221 31.44152 274.122828 31.44152 
C 258.291435 31.44152 243.106324 38.816599 231.911838 51.942482 
C 220.717353 65.068366 214.427474 82.873382 214.427474 101.436185 
C 214.427474 119.998987 220.717353 137.804003 231.911838 150.929887 
C 243.106324 164.05577 258.291435 171.430849 274.122828 171.430849 
z
" style="fill:none;stroke:#000000;stroke-linejoin:miter;"/>
   </g>
   <g id="line2d_1">
    <defs>
     <path d="M 0 3 
C 0.795609 3 1.55874 2.683901 2.12132 2.12132 
C 2.683901 1.55874 3 0.795609 3 0 
C 3 -0.795609 2.683901 -1.55874 2.12132 -2.12132 
C 1.55874 -2.683901 0.795609 -3 0 -3 
C -0.795609 -3 -1.55874 -2.683901 -2.12132 -2.12132 
C -2.683901 -1.55874 -3 -0.795609 -3 0 
C -3 0.795609 -2.683901 1.55874 -2.12132 2.12132 
C -1.55874 2.683901 -0.795609 3 0 3 
z
" id="m98fbf84a12" style="stroke:#000000;"/>
    </defs>
    <g clip-path="url(#p41f819f348)">
     <use style="stroke:#000000;" x="282.097524" xlink:href="#m98fbf84a12" y="158.818917"/>
     <use style="stroke:#000000;" x="283.472563" xlink:href="#m98fbf84a12" y="111.035669"/>
     <use style="stroke:#000000;" x="216.610183" xlink:href="#m98fbf84a12" y="253.237837"/>
     <use style="stroke:#000000;" x="284.345585" xlink:href="#m98fbf84a12" y="313.075121"/>
     <use style="stroke:#000000;" x="108.458852" xlink:href="#m98fbf84a12" y="190.879202"/>
     <use style="stroke:#000000;" x="236.466438" xlink:href="#m98fbf84a12" y="258.4855"/>
     <use style="stroke:#000000;" x="256.798397" xlink:href="#m98fbf84a12" y="34.453967"/>
     <use style="stroke:#000000;" x="86.782181" xlink:href="#m98fbf84a12" y="144.533393"/>
     <use style="stroke:#000000;" x="49.125" xlink:href="#m98fbf84a12" y="204.628269"/>
     <use style="stroke:#000000;" x="57.678437" xlink:href="#m98fbf84a12" y="42.080557"/>
    </g>
   </g>
   <g id="text_1">
    <!-- 8 -->
    <g style="fill:#ff0000;" transform="translate(49.125 193.223046)scale(0.15 -0.15)">
     <defs>
      <path d="M 46.578125 19.921875 
Q 46.578125 27.734375 42.6875 32.046875 
Q 38.8125 36.375 31.78125 36.375 
Q 24.75 36.375 20.875 32.046875 
Q 17 27.734375 17 19.921875 
Q 17 12.0625 20.875 7.734375 
Q 24.75 3.421875 31.78125 3.421875 
Q 38.8125 3.421875 42.6875 7.734375 
Q 46.578125 12.0625 46.578125 19.921875 
z
M 44.578125 55.328125 
Q 44.578125 61.96875 41.203125 65.671875 
Q 37.84375 69.390625 31.78125 69.390625 
Q 25.78125 69.390625 22.390625 65.671875 
Q 19 61.96875 19 55.328125 
Q 19 48.640625 22.390625 44.921875 
Q 25.78125 41.21875 31.78125 41.21875 
Q 37.84375 41.21875 41.203125 44.921875 
Q 44.578125 48.640625 44.578125 55.328125 
z
M 39.3125 38.8125 
Q 47.609375 37.703125 52.25 32.6875 
Q 56.890625 27.6875 56.890625 19.921875 
Q 56.890625 9.671875 50.390625 4.125 
Q 43.890625 -1.421875 31.78125 -1.421875 
Q 19.734375 -1.421875 13.203125 4.125 
Q 6.6875 9.671875 6.6875 19.921875 
Q 6.6875 27.6875 11.328125 32.6875 
Q 15.96875 37.703125 24.3125 38.8125 
Q 16.9375 40.140625 13 44.40625 
Q 9.078125 48.6875 9.078125 55.328125 
Q 9.078125 64.109375 15.125 69.15625 
Q 21.1875 74.21875 31.78125 74.21875 
Q 42.390625 74.21875 48.4375 69.15625 
Q 54.5 64.109375 54.5 55.328125 
Q 54.5 48.6875 50.5625 44.40625 
Q 46.625 40.140625 39.3125 38.8125 
z
" id="BitstreamVeraSerif-Roman-56"/>
     </defs>
     <use xlink:href="#BitstreamVeraSerif-Roman-56"/>
    </g>
   </g>
   <g id="text_2">
    <!-- 4 -->
    <g style="fill:#ff0000;" transform="translate(108.458852 179.473979)scale(0.15 -0.15)">
     <defs>
      <path d="M 34.90625 24.703125 
L 34.90625 63.484375 
L 10.015625 24.703125 
z
M 56.390625 0 
L 23.1875 0 
L 23.1875 5.171875 
L 34.90625 5.171875 
L 34.90625 19.484375 
L 3.078125 19.484375 
L 3.078125 24.8125 
L 35.015625 74.21875 
L 44.671875 74.21875 
L 44.671875 24.703125 
L 58.59375 24.703125 
L 58.59375 19.484375 
L 44.671875 19.484375 
L 44.671875 5.171875 
L 56.390625 5.171875 
z
" id="BitstreamVeraSerif-Roman-52"/>
     </defs>
     <use xlink:href="#BitstreamVeraSerif-Roman-52"/>
    </g>
   </g>
   <g id="text_3">
    <!-- 2 -->
    <g style="fill:#ff0000;" transform="translate(216.610183 241.832615)scale(0.15 -0.15)">
     <defs>
      <path d="M 12.796875 55.515625 
L 7.328125 55.515625 
L 7.328125 68.5 
Q 12.546875 71.296875 17.84375 72.75 
Q 23.140625 74.21875 28.21875 74.21875 
Q 39.59375 74.21875 46.1875 68.703125 
Q 52.78125 63.1875 52.78125 53.71875 
Q 52.78125 43.015625 37.84375 28.125 
Q 36.671875 27 36.078125 26.421875 
L 17.671875 8.015625 
L 48.09375 8.015625 
L 48.09375 17 
L 53.8125 17 
L 53.8125 0 
L 6.78125 0 
L 6.78125 5.328125 
L 28.90625 27.390625 
Q 36.234375 34.71875 39.359375 40.84375 
Q 42.484375 46.96875 42.484375 53.71875 
Q 42.484375 61.078125 38.640625 65.234375 
Q 34.8125 69.390625 28.078125 69.390625 
Q 21.09375 69.390625 17.28125 65.921875 
Q 13.484375 62.453125 12.796875 55.515625 
z
" id="BitstreamVeraSerif-Roman-50"/>
     </defs>
     <use xlink:href="#BitstreamVeraSerif-Roman-50"/>
    </g>
   </g>
   <g id="text_4">
    <!-- 5 -->
    <g style="fill:#ff0000;" transform="translate(226.739428 247.080277)scale(0.15 -0.15)">
     <defs>
      <path d="M 50.296875 72.90625 
L 50.296875 64.890625 
L 16.890625 64.890625 
L 16.890625 44 
Q 19.4375 45.75 22.828125 46.625 
Q 26.21875 47.515625 30.421875 47.515625 
Q 42.234375 47.515625 49.0625 40.96875 
Q 55.90625 34.421875 55.90625 23.09375 
Q 55.90625 11.53125 49 5.046875 
Q 42.09375 -1.421875 29.59375 -1.421875 
Q 24.5625 -1.421875 19.28125 -0.1875 
Q 14.015625 1.03125 8.5 3.515625 
L 8.5 17.671875 
L 14.015625 17.671875 
Q 14.453125 10.75 18.421875 7.078125 
Q 22.40625 3.421875 29.59375 3.421875 
Q 37.3125 3.421875 41.453125 8.5 
Q 45.609375 13.578125 45.609375 23.09375 
Q 45.609375 32.5625 41.484375 37.609375 
Q 37.359375 42.671875 29.59375 42.671875 
Q 25.203125 42.671875 21.84375 41.109375 
Q 18.5 39.546875 15.921875 36.28125 
L 11.71875 36.28125 
L 11.71875 72.90625 
z
" id="BitstreamVeraSerif-Roman-53"/>
     </defs>
     <use xlink:href="#BitstreamVeraSerif-Roman-53"/>
    </g>
   </g>
   <g id="text_5">
    <!-- 3 -->
    <g style="fill:#ff0000;" transform="translate(284.345585 301.669898)scale(0.15 -0.15)">
     <defs>
      <path d="M 9.71875 69.828125 
Q 15.4375 71.96875 20.671875 73.09375 
Q 25.921875 74.21875 30.515625 74.21875 
Q 41.21875 74.21875 47.21875 69.59375 
Q 53.21875 64.984375 53.21875 56.78125 
Q 53.21875 50.203125 49.0625 45.78125 
Q 44.921875 41.359375 37.3125 39.796875 
Q 46.296875 38.53125 51.25 33.28125 
Q 56.203125 28.03125 56.203125 19.671875 
Q 56.203125 9.46875 49.34375 4.015625 
Q 42.484375 -1.421875 29.59375 -1.421875 
Q 23.875 -1.421875 18.421875 -0.1875 
Q 12.984375 1.03125 7.625 3.515625 
L 7.625 17.671875 
L 13.09375 17.671875 
Q 13.578125 10.640625 17.828125 7.03125 
Q 22.078125 3.421875 29.78125 3.421875 
Q 37.25 3.421875 41.578125 7.734375 
Q 45.90625 12.0625 45.90625 19.578125 
Q 45.90625 28.171875 41.453125 32.59375 
Q 37.015625 37.015625 28.421875 37.015625 
L 23.78125 37.015625 
L 23.78125 42 
L 26.21875 42 
Q 34.765625 42 39.03125 45.53125 
Q 43.3125 49.078125 43.3125 56.203125 
Q 43.3125 62.59375 39.796875 65.984375 
Q 36.28125 69.390625 29.6875 69.390625 
Q 23.09375 69.390625 19.453125 66.265625 
Q 15.828125 63.140625 15.1875 56.984375 
L 9.71875 56.984375 
z
" id="BitstreamVeraSerif-Roman-51"/>
     </defs>
     <use xlink:href="#BitstreamVeraSerif-Roman-51"/>
    </g>
   </g>
   <g id="text_6">
    <!-- 7 -->
    <g style="fill:#ff0000;" transform="translate(86.782181 133.12817)scale(0.15 -0.15)">
     <defs>
      <path d="M 56.390625 67.921875 
L 27.875 0 
L 20.609375 0 
L 47.796875 64.890625 
L 14.109375 64.890625 
L 14.109375 55.90625 
L 8.40625 55.90625 
L 8.40625 72.90625 
L 56.390625 72.90625 
z
" id="BitstreamVeraSerif-Roman-55"/>
     </defs>
     <use xlink:href="#BitstreamVeraSerif-Roman-55"/>
    </g>
   </g>
   <g id="text_7">
    <!-- 9 -->
    <g style="fill:#ff0000;" transform="translate(57.678437 30.675334)scale(0.15 -0.15)">
     <defs>
      <path d="M 46.78125 32.671875 
Q 43.5 29 39.25 27.1875 
Q 35.015625 25.390625 29.6875 25.390625 
Q 18.84375 25.390625 12.5625 31.9375 
Q 6.296875 38.484375 6.296875 49.8125 
Q 6.296875 60.890625 13.109375 67.546875 
Q 19.921875 74.21875 31.296875 74.21875 
Q 43.65625 74.21875 50.265625 65.015625 
Q 56.890625 55.8125 56.890625 38.71875 
Q 56.890625 19.578125 49.015625 9.078125 
Q 41.15625 -1.421875 26.90625 -1.421875 
Q 23.046875 -1.421875 18.796875 -0.6875 
Q 14.546875 0.046875 10.109375 1.515625 
L 10.109375 13.625 
L 15.578125 13.625 
Q 16.21875 8.6875 19.390625 6.046875 
Q 22.5625 3.421875 27.875 3.421875 
Q 37.359375 3.421875 41.984375 10.5625 
Q 46.625 17.71875 46.78125 32.671875 
z
M 30.90625 69.390625 
Q 23.96875 69.390625 20.28125 64.328125 
Q 16.609375 59.28125 16.609375 49.8125 
Q 16.609375 40.328125 20.28125 35.25 
Q 23.96875 30.171875 30.90625 30.171875 
Q 37.84375 30.171875 41.53125 35.078125 
Q 45.21875 39.984375 45.21875 49.21875 
Q 45.21875 58.9375 41.5 64.15625 
Q 37.796875 69.390625 30.90625 69.390625 
z
" id="BitstreamVeraSerif-Roman-57"/>
     </defs>
     <use xlink:href="#BitstreamVeraSerif-Roman-57"/>
    </g>
   </g>
   <g id="text_8">
    <!-- 0 -->
    <g style="fill:#ff0000;" transform="translate(282.097524 147.413694)scale(0.15 -0.15)">
     <defs>
      <path d="M 31.78125 3.421875 
Q 39.265625 3.421875 42.96875 11.625 
Q 46.6875 19.828125 46.6875 36.375 
Q 46.6875 52.984375 42.96875 61.1875 
Q 39.265625 69.390625 31.78125 69.390625 
Q 24.3125 69.390625 20.59375 61.1875 
Q 16.890625 52.984375 16.890625 36.375 
Q 16.890625 19.828125 20.59375 11.625 
Q 24.3125 3.421875 31.78125 3.421875 
z
M 31.78125 -1.421875 
Q 19.921875 -1.421875 13.25 8.53125 
Q 6.59375 18.5 6.59375 36.375 
Q 6.59375 54.296875 13.25 64.25 
Q 19.921875 74.21875 31.78125 74.21875 
Q 43.703125 74.21875 50.34375 64.25 
Q 56.984375 54.296875 56.984375 36.375 
Q 56.984375 18.5 50.34375 8.53125 
Q 43.703125 -1.421875 31.78125 -1.421875 
z
" id="BitstreamVeraSerif-Roman-48"/>
     </defs>
     <use xlink:href="#BitstreamVeraSerif-Roman-48"/>
    </g>
   </g>
   <g id="text_9">
    <!-- 1 -->
    <g style="fill:#ff0000;" transform="translate(288.336068 102.481753)scale(0.15 -0.15)">
     <defs>
      <path d="M 14.203125 0 
L 14.203125 5.171875 
L 26.90625 5.171875 
L 26.90625 65.828125 
L 12.203125 56.296875 
L 12.203125 62.703125 
L 29.984375 74.21875 
L 36.71875 74.21875 
L 36.71875 5.171875 
L 49.421875 5.171875 
L 49.421875 0 
z
" id="BitstreamVeraSerif-Roman-49"/>
     </defs>
     <use xlink:href="#BitstreamVeraSerif-Roman-49"/>
    </g>
   </g>
   <g id="text_10">
    <!-- 6 -->
    <g style="fill:#ff0000;" transform="translate(256.798397 23.048745)scale(0.15 -0.15)">
     <defs>
      <path d="M 32.71875 3.421875 
Q 39.59375 3.421875 43.296875 8.46875 
Q 47.015625 13.53125 47.015625 23 
Q 47.015625 32.46875 43.296875 37.515625 
Q 39.59375 42.578125 32.71875 42.578125 
Q 25.734375 42.578125 22.0625 37.6875 
Q 18.40625 32.8125 18.40625 23.578125 
Q 18.40625 13.875 22.109375 8.640625 
Q 25.828125 3.421875 32.71875 3.421875 
z
M 16.796875 40.140625 
Q 20.125 43.796875 24.3125 45.59375 
Q 28.515625 47.40625 33.796875 47.40625 
Q 44.671875 47.40625 51 40.859375 
Q 57.328125 34.328125 57.328125 23 
Q 57.328125 11.921875 50.515625 5.25 
Q 43.703125 -1.421875 32.328125 -1.421875 
Q 19.96875 -1.421875 13.328125 7.78125 
Q 6.6875 17 6.6875 34.078125 
Q 6.6875 53.21875 14.546875 63.71875 
Q 22.40625 74.21875 36.71875 74.21875 
Q 40.578125 74.21875 44.828125 73.484375 
Q 49.078125 72.75 53.515625 71.296875 
L 53.515625 59.28125 
L 48 59.28125 
Q 47.40625 64.203125 44.234375 66.796875 
Q 41.0625 69.390625 35.6875 69.390625 
Q 26.21875 69.390625 21.578125 62.203125 
Q 16.9375 55.03125 16.796875 40.140625 
z
" id="BitstreamVeraSerif-Roman-54"/>
     </defs>
     <use xlink:href="#BitstreamVeraSerif-Roman-54"/>
    </g>
   </g>
  </g>
 </g>
 <defs>
  <clipPath id="p41f819f348">
   <rect height="332.950394" width="338.4" x="10.8" y="16.249606"/>
  </clipPath>
 </defs>
</svg>
