<?xml version="1.0" encoding="utf-8" standalone="no"?>
<!DOCTYPE svg PUBLIC "-//W3C//DTD SVG 1.1//EN"
  "http://www.w3.org/Graphics/SVG/1.1/DTD/svg11.dtd">
<svg height="288pt" version="1.1" viewBox="0 0 576 288" width="576pt" xmlns="http://www.w3.org/2000/svg" xmlns:xlink="http://www.w3.org/1999/xlink">
 <metadata>
  <rdf:RDF xmlns:cc="http://creativecommons.org/ns#" xmlns:dc="http://purl.org/dc/elements/1.1/" xmlns:rdf="http://www.w3.org/1999/02/22-rdf-syntax-ns#">
   <cc:Work>
    <dc:type rdf:resource="http://purl.org/dc/dcmitype/StillImage"/>
    <dc:date>2021-06-19T00:34:43.822726</dc:date>
    <dc:format>image/svg+xml</dc:format>
    <dc:creator>
     <cc:Agent>
      <dc:title>Matplotlib v3.4.2, https://matplotlib.org/</dc:title>
     </cc:Agent>
    </dc:creator>
   </cc:Work>
  </rdf:RDF>
 </metadata>
 <defs>
  <style type="text/css">*{stroke-linecap:butt;stroke-linejoin:round;}</style>
 </defs>
 <g id="figure_1">
  <g id="patch_1">
   <path d="M 0 288 
L 576 288 
L 576 0 
L 0 0 
z
" style="fill:none;"/>
  </g>
  <g id="axes_1">
   <g id="line2d_1">
    <path clip-path="url(#p489910baa2)" d="M 86.073434 150.531317 
L 53.416847 202.781857 
" style="fill:none;stroke:#000000;stroke-linecap:square;stroke-width:0.75;"/>
   </g>
   <g id="line2d_2">
    <path clip-path="url(#p489910baa2)" d="M 86.073434 150.531317 
L 118.730022 202.781857 
" style="fill:none;stroke:#000000;stroke-linecap:square;stroke-width:0.75;"/>
   </g>
   <g id="line2d_3">
    <path clip-path="url(#p489910baa2)" d="M 249.356371 202.781857 
L 233.028078 255.032397 
" style="fill:none;stroke:#000000;stroke-linecap:square;stroke-width:0.75;"/>
   </g>
   <g id="line2d_4">
    <path clip-path="url(#p489910baa2)" d="M 249.356371 202.781857 
L 265.684665 255.032397 
" style="fill:none;stroke:#000000;stroke-linecap:square;stroke-width:0.75;"/>
   </g>
   <g id="line2d_5">
    <path clip-path="url(#p489910baa2)" d="M 216.699784 150.531317 
L 184.043197 202.781857 
" style="fill:none;stroke:#000000;stroke-linecap:square;stroke-width:0.75;"/>
   </g>
   <g id="line2d_6">
    <path clip-path="url(#p489910baa2)" d="M 216.699784 150.531317 
L 249.356371 202.781857 
" style="fill:none;stroke:#000000;stroke-linecap:square;stroke-width:0.75;"/>
   </g>
   <g id="line2d_7">
    <path clip-path="url(#p489910baa2)" d="M 151.386609 98.280778 
L 86.073434 150.531317 
" style="fill:none;stroke:#000000;stroke-linecap:square;stroke-width:0.75;"/>
   </g>
   <g id="line2d_8">
    <path clip-path="url(#p489910baa2)" d="M 151.386609 98.280778 
L 216.699784 150.531317 
" style="fill:none;stroke:#000000;stroke-linecap:square;stroke-width:0.75;"/>
   </g>
   <g id="line2d_9">
    <path clip-path="url(#p489910baa2)" d="M 347.326134 150.531317 
L 314.669546 202.781857 
" style="fill:none;stroke:#000000;stroke-linecap:square;stroke-width:0.75;"/>
   </g>
   <g id="line2d_10">
    <path clip-path="url(#p489910baa2)" d="M 347.326134 150.531317 
L 379.982721 202.781857 
" style="fill:none;stroke:#000000;stroke-linecap:square;stroke-width:0.75;"/>
   </g>
   <g id="line2d_11">
    <path clip-path="url(#p489910baa2)" d="M 510.609071 202.781857 
L 494.280778 255.032397 
" style="fill:none;stroke:#000000;stroke-linecap:square;stroke-width:0.75;"/>
   </g>
   <g id="line2d_12">
    <path clip-path="url(#p489910baa2)" d="M 510.609071 202.781857 
L 526.937365 255.032397 
" style="fill:none;stroke:#000000;stroke-linecap:square;stroke-width:0.75;"/>
   </g>
   <g id="line2d_13">
    <path clip-path="url(#p489910baa2)" d="M 477.952484 150.531317 
L 445.295896 202.781857 
" style="fill:none;stroke:#000000;stroke-linecap:square;stroke-width:0.75;"/>
   </g>
   <g id="line2d_14">
    <path clip-path="url(#p489910baa2)" d="M 477.952484 150.531317 
L 510.609071 202.781857 
" style="fill:none;stroke:#000000;stroke-linecap:square;stroke-width:0.75;"/>
   </g>
   <g id="line2d_15">
    <path clip-path="url(#p489910baa2)" d="M 412.639309 98.280778 
L 347.326134 150.531317 
" style="fill:none;stroke:#000000;stroke-linecap:square;stroke-width:0.75;"/>
   </g>
   <g id="line2d_16">
    <path clip-path="url(#p489910baa2)" d="M 412.639309 98.280778 
L 477.952484 150.531317 
" style="fill:none;stroke:#000000;stroke-linecap:square;stroke-width:0.75;"/>
   </g>
   <g id="line2d_17">
    <path clip-path="url(#p489910baa2)" d="M 282.012959 46.030238 
L 151.386609 98.280778 
" style="fill:none;stroke:#000000;stroke-linecap:square;stroke-width:0.75;"/>
   </g>
   <g id="line2d_18">
    <path clip-path="url(#p489910baa2)" d="M 282.012959 46.030238 
L 412.639309 98.280778 
" style="fill:none;stroke:#000000;stroke-linecap:square;stroke-width:0.75;"/>
   </g>
   <g id="patch_2">
    <path clip-path="url(#p489910baa2)" d="M 53.416847 220.198704 
C 58.035848 220.198704 62.46629 218.363555 65.732417 215.097428 
C 68.998544 211.8313 70.833693 207.400859 70.833693 202.781857 
C 70.833693 198.162856 68.998544 193.732415 65.732417 190.466287 
C 62.46629 187.20016 58.035848 185.365011 53.416847 185.365011 
C 48.797845 185.365011 44.367404 187.20016 41.101276 190.466287 
C 37.835149 193.732415 36 198.162856 36 202.781857 
C 36 207.400859 37.835149 211.8313 41.101276 215.097428 
C 44.367404 218.363555 48.797845 220.198704 53.416847 220.198704 
z
" style="fill:#ffffff;stroke:#000000;stroke-linejoin:miter;"/>
   </g>
   <g id="patch_3">
    <path clip-path="url(#p489910baa2)" d="M 118.730022 220.198704 
C 123.349023 220.198704 127.779465 218.363555 131.045592 215.097428 
C 134.311719 211.8313 136.146868 207.400859 136.146868 202.781857 
C 136.146868 198.162856 134.311719 193.732415 131.045592 190.466287 
C 127.779465 187.20016 123.349023 185.365011 118.730022 185.365011 
C 114.11102 185.365011 109.680579 187.20016 106.414451 190.466287 
C 103.148324 193.732415 101.313175 198.162856 101.313175 202.781857 
C 101.313175 207.400859 103.148324 211.8313 106.414451 215.097428 
C 109.680579 218.363555 114.11102 220.198704 118.730022 220.198704 
z
" style="fill:#ffffff;stroke:#000000;stroke-linejoin:miter;"/>
   </g>
   <g id="patch_4">
    <path clip-path="url(#p489910baa2)" d="M 86.073434 176.656587 
C 93.001937 176.656587 99.647599 173.903864 104.54679 169.004673 
C 109.445981 164.105482 112.198704 157.45982 112.198704 150.531317 
C 112.198704 143.602815 109.445981 136.957153 104.54679 132.057962 
C 99.647599 127.158771 93.001937 124.406048 86.073434 124.406048 
C 79.144932 124.406048 72.49927 127.158771 67.600079 132.057962 
C 62.700887 136.957153 59.948164 143.602815 59.948164 150.531317 
C 59.948164 157.45982 62.700887 164.105482 67.600079 169.004673 
C 72.49927 173.903864 79.144932 176.656587 86.073434 176.656587 
z
" style="fill:#ffffff;stroke:#000000;stroke-linejoin:miter;"/>
   </g>
   <g id="patch_5">
    <path clip-path="url(#p489910baa2)" d="M 184.043197 220.198704 
C 188.662198 220.198704 193.092639 218.363555 196.358767 215.097428 
C 199.624894 211.8313 201.460043 207.400859 201.460043 202.781857 
C 201.460043 198.162856 199.624894 193.732415 196.358767 190.466287 
C 193.092639 187.20016 188.662198 185.365011 184.043197 185.365011 
C 179.424195 185.365011 174.993754 187.20016 171.727626 190.466287 
C 168.461499 193.732415 166.62635 198.162856 166.62635 202.781857 
C 166.62635 207.400859 168.461499 211.8313 171.727626 215.097428 
C 174.993754 218.363555 179.424195 220.198704 184.043197 220.198704 
z
" style="fill:#ffffff;stroke:#000000;stroke-linejoin:miter;"/>
   </g>
   <g id="patch_6">
    <path clip-path="url(#p489910baa2)" d="M 233.028078 268.095032 
C 236.492329 268.095032 239.81516 266.718671 242.264756 264.269075 
C 244.714351 261.81948 246.090713 258.496649 246.090713 255.032397 
C 246.090713 251.568146 244.714351 248.245315 242.264756 245.79572 
C 239.81516 243.346124 236.492329 241.969762 233.028078 241.969762 
C 229.563826 241.969762 226.240996 243.346124 223.7914 245.79572 
C 221.341804 248.245315 219.965443 251.568146 219.965443 255.032397 
C 219.965443 258.496649 221.341804 261.81948 223.7914 264.269075 
C 226.240996 266.718671 229.563826 268.095032 233.028078 268.095032 
z
" style="fill:#ffffff;stroke:#000000;stroke-linejoin:miter;"/>
   </g>
   <g id="patch_7">
    <path clip-path="url(#p489910baa2)" d="M 265.684665 268.095032 
C 269.148917 268.095032 272.471747 266.718671 274.921343 264.269075 
C 277.370939 261.81948 278.7473 258.496649 278.7473 255.032397 
C 278.7473 251.568146 277.370939 248.245315 274.921343 245.79572 
C 272.471747 243.346124 269.148917 241.969762 265.684665 241.969762 
C 262.220414 241.969762 258.897583 243.346124 256.447987 245.79572 
C 253.998392 248.245315 252.62203 251.568146 252.62203 255.032397 
C 252.62203 258.496649 253.998392 261.81948 256.447987 264.269075 
C 258.897583 266.718671 262.220414 268.095032 265.684665 268.095032 
z
" style="fill:#ffffff;stroke:#000000;stroke-linejoin:miter;"/>
   </g>
   <g id="patch_8">
    <path clip-path="url(#p489910baa2)" d="M 249.356371 220.198704 
C 253.975373 220.198704 258.405814 218.363555 261.671942 215.097428 
C 264.938069 211.8313 266.773218 207.400859 266.773218 202.781857 
C 266.773218 198.162856 264.938069 193.732415 261.671942 190.466287 
C 258.405814 187.20016 253.975373 185.365011 249.356371 185.365011 
C 244.73737 185.365011 240.306929 187.20016 237.040801 190.466287 
C 233.774674 193.732415 231.939525 198.162856 231.939525 202.781857 
C 231.939525 207.400859 233.774674 211.8313 237.040801 215.097428 
C 240.306929 218.363555 244.73737 220.198704 249.356371 220.198704 
z
" style="fill:#ffffff;stroke:#000000;stroke-linejoin:miter;"/>
   </g>
   <g id="patch_9">
    <path clip-path="url(#p489910baa2)" d="M 216.699784 176.656587 
C 223.628287 176.656587 230.273948 173.903864 235.17314 169.004673 
C 240.072331 164.105482 242.825054 157.45982 242.825054 150.531317 
C 242.825054 143.602815 240.072331 136.957153 235.17314 132.057962 
C 230.273948 127.158771 223.628287 124.406048 216.699784 124.406048 
C 209.771281 124.406048 203.12562 127.158771 198.226428 132.057962 
C 193.327237 136.957153 190.574514 143.602815 190.574514 150.531317 
C 190.574514 157.45982 193.327237 164.105482 198.226428 169.004673 
C 203.12562 173.903864 209.771281 176.656587 216.699784 176.656587 
z
" style="fill:#ffffff;stroke:#000000;stroke-linejoin:miter;"/>
   </g>
   <g id="patch_10">
    <path clip-path="url(#p489910baa2)" d="M 151.386609 124.406048 
C 158.315112 124.406048 164.960773 121.653324 169.859965 116.754133 
C 174.759156 111.854942 177.511879 105.20928 177.511879 98.280778 
C 177.511879 91.352275 174.759156 84.706613 169.859965 79.807422 
C 164.960773 74.908231 158.315112 72.155508 151.386609 72.155508 
C 144.458106 72.155508 137.812445 74.908231 132.913254 79.807422 
C 128.014062 84.706613 125.261339 91.352275 125.261339 98.280778 
C 125.261339 105.20928 128.014062 111.854942 132.913254 116.754133 
C 137.812445 121.653324 144.458106 124.406048 151.386609 124.406048 
z
" style="fill:#ffffff;stroke:#000000;stroke-linejoin:miter;"/>
   </g>
   <g id="patch_11">
    <path clip-path="url(#p489910baa2)" d="M 314.669546 220.198704 
C 319.288548 220.198704 323.718989 218.363555 326.985117 215.097428 
C 330.251244 211.8313 332.086393 207.400859 332.086393 202.781857 
C 332.086393 198.162856 330.251244 193.732415 326.985117 190.466287 
C 323.718989 187.20016 319.288548 185.365011 314.669546 185.365011 
C 310.050545 185.365011 305.620104 187.20016 302.353976 190.466287 
C 299.087849 193.732415 297.2527 198.162856 297.2527 202.781857 
C 297.2527 207.400859 299.087849 211.8313 302.353976 215.097428 
C 305.620104 218.363555 310.050545 220.198704 314.669546 220.198704 
z
" style="fill:#ffffff;stroke:#000000;stroke-linejoin:miter;"/>
   </g>
   <g id="patch_12">
    <path clip-path="url(#p489910baa2)" d="M 379.982721 220.198704 
C 384.601723 220.198704 389.032164 218.363555 392.298292 215.097428 
C 395.564419 211.8313 397.399568 207.400859 397.399568 202.781857 
C 397.399568 198.162856 395.564419 193.732415 392.298292 190.466287 
C 389.032164 187.20016 384.601723 185.365011 379.982721 185.365011 
C 375.36372 185.365011 370.933278 187.20016 367.667151 190.466287 
C 364.401024 193.732415 362.565875 198.162856 362.565875 202.781857 
C 362.565875 207.400859 364.401024 211.8313 367.667151 215.097428 
C 370.933278 218.363555 375.36372 220.198704 379.982721 220.198704 
z
" style="fill:#ffffff;stroke:#000000;stroke-linejoin:miter;"/>
   </g>
   <g id="patch_13">
    <path clip-path="url(#p489910baa2)" d="M 347.326134 176.656587 
C 354.254636 176.656587 360.900298 173.903864 365.799489 169.004673 
C 370.698681 164.105482 373.451404 157.45982 373.451404 150.531317 
C 373.451404 143.602815 370.698681 136.957153 365.799489 132.057962 
C 360.900298 127.158771 354.254636 124.406048 347.326134 124.406048 
C 340.397631 124.406048 333.75197 127.158771 328.852778 132.057962 
C 323.953587 136.957153 321.200864 143.602815 321.200864 150.531317 
C 321.200864 157.45982 323.953587 164.105482 328.852778 169.004673 
C 333.75197 173.903864 340.397631 176.656587 347.326134 176.656587 
z
" style="fill:#ffffff;stroke:#000000;stroke-linejoin:miter;"/>
   </g>
   <g id="patch_14">
    <path clip-path="url(#p489910baa2)" d="M 445.295896 220.198704 
C 449.914898 220.198704 454.345339 218.363555 457.611467 215.097428 
C 460.877594 211.8313 462.712743 207.400859 462.712743 202.781857 
C 462.712743 198.162856 460.877594 193.732415 457.611467 190.466287 
C 454.345339 187.20016 449.914898 185.365011 445.295896 185.365011 
C 440.676895 185.365011 436.246453 187.20016 432.980326 190.466287 
C 429.714199 193.732415 427.87905 198.162856 427.87905 202.781857 
C 427.87905 207.400859 429.714199 211.8313 432.980326 215.097428 
C 436.246453 218.363555 440.676895 220.198704 445.295896 220.198704 
z
" style="fill:#ffffff;stroke:#000000;stroke-linejoin:miter;"/>
   </g>
   <g id="patch_15">
    <path clip-path="url(#p489910baa2)" d="M 494.280778 268.095032 
C 497.745029 268.095032 501.06786 266.718671 503.517455 264.269075 
C 505.967051 261.81948 507.343413 258.496649 507.343413 255.032397 
C 507.343413 251.568146 505.967051 248.245315 503.517455 245.79572 
C 501.06786 243.346124 497.745029 241.969762 494.280778 241.969762 
C 490.816526 241.969762 487.493695 243.346124 485.0441 245.79572 
C 482.594504 248.245315 481.218143 251.568146 481.218143 255.032397 
C 481.218143 258.496649 482.594504 261.81948 485.0441 264.269075 
C 487.493695 266.718671 490.816526 268.095032 494.280778 268.095032 
z
" style="fill:#ffffff;stroke:#000000;stroke-linejoin:miter;"/>
   </g>
   <g id="patch_16">
    <path clip-path="url(#p489910baa2)" d="M 526.937365 268.095032 
C 530.401616 268.095032 533.724447 266.718671 536.174043 264.269075 
C 538.623638 261.81948 540 258.496649 540 255.032397 
C 540 251.568146 538.623638 248.245315 536.174043 245.79572 
C 533.724447 243.346124 530.401616 241.969762 526.937365 241.969762 
C 523.473114 241.969762 520.150283 243.346124 517.700687 245.79572 
C 515.251092 248.245315 513.87473 251.568146 513.87473 255.032397 
C 513.87473 258.496649 515.251092 261.81948 517.700687 264.269075 
C 520.150283 266.718671 523.473114 268.095032 526.937365 268.095032 
z
" style="fill:#ffffff;stroke:#000000;stroke-linejoin:miter;"/>
   </g>
   <g id="patch_17">
    <path clip-path="url(#p489910baa2)" d="M 510.609071 220.198704 
C 515.228073 220.198704 519.658514 218.363555 522.924642 215.097428 
C 526.190769 211.8313 528.025918 207.400859 528.025918 202.781857 
C 528.025918 198.162856 526.190769 193.732415 522.924642 190.466287 
C 519.658514 187.20016 515.228073 185.365011 510.609071 185.365011 
C 505.99007 185.365011 501.559628 187.20016 498.293501 190.466287 
C 495.027373 193.732415 493.192225 198.162856 493.192225 202.781857 
C 493.192225 207.400859 495.027373 211.8313 498.293501 215.097428 
C 501.559628 218.363555 505.99007 220.198704 510.609071 220.198704 
z
" style="fill:#ffffff;stroke:#000000;stroke-linejoin:miter;"/>
   </g>
   <g id="patch_18">
    <path clip-path="url(#p489910baa2)" d="M 477.952484 176.656587 
C 484.880986 176.656587 491.526648 173.903864 496.425839 169.004673 
C 501.325031 164.105482 504.077754 157.45982 504.077754 150.531317 
C 504.077754 143.602815 501.325031 136.957153 496.425839 132.057962 
C 491.526648 127.158771 484.880986 124.406048 477.952484 124.406048 
C 471.023981 124.406048 464.378319 127.158771 459.479128 132.057962 
C 454.579937 136.957153 451.827214 143.602815 451.827214 150.531317 
C 451.827214 157.45982 454.579937 164.105482 459.479128 169.004673 
C 464.378319 173.903864 471.023981 176.656587 477.952484 176.656587 
z
" style="fill:#ffffff;stroke:#000000;stroke-linejoin:miter;"/>
   </g>
   <g id="patch_19">
    <path clip-path="url(#p489910baa2)" d="M 412.639309 124.406048 
C 419.567811 124.406048 426.213473 121.653324 431.112664 116.754133 
C 436.011856 111.854942 438.764579 105.20928 438.764579 98.280778 
C 438.764579 91.352275 436.011856 84.706613 431.112664 79.807422 
C 426.213473 74.908231 419.567811 72.155508 412.639309 72.155508 
C 405.710806 72.155508 399.065144 74.908231 394.165953 79.807422 
C 389.266762 84.706613 386.514039 91.352275 386.514039 98.280778 
C 386.514039 105.20928 389.266762 111.854942 394.165953 116.754133 
C 399.065144 121.653324 405.710806 124.406048 412.639309 124.406048 
z
" style="fill:#ffffff;stroke:#000000;stroke-linejoin:miter;"/>
   </g>
   <g id="patch_20">
    <path clip-path="url(#p489910baa2)" d="M 282.012959 72.155508 
C 288.941462 72.155508 295.587123 69.402784 300.486315 64.503593 
C 305.385506 59.604402 308.138229 52.95874 308.138229 46.030238 
C 308.138229 39.101735 305.385506 32.456073 300.486315 27.556882 
C 295.587123 22.657691 288.941462 19.904968 282.012959 19.904968 
C 275.084456 19.904968 268.438795 22.657691 263.539603 27.556882 
C 258.640412 32.456073 255.887689 39.101735 255.887689 46.030238 
C 255.887689 52.95874 258.640412 59.604402 263.539603 64.503593 
C 268.438795 69.402784 275.084456 72.155508 282.012959 72.155508 
z
" style="fill:#ffffff;stroke:#000000;stroke-linejoin:miter;"/>
   </g>
   <g id="text_1">
    <!-- 8 -->
    <g transform="translate(47.669287 209.574428)scale(0.2 -0.2)">
     <defs>
      <path d="M 2981 1275 
Q 2981 1775 2732 2051 
Q 2484 2328 2034 2328 
Q 1584 2328 1336 2051 
Q 1088 1775 1088 1275 
Q 1088 772 1336 495 
Q 1584 219 2034 219 
Q 2484 219 2732 495 
Q 2981 772 2981 1275 
z
M 2853 3541 
Q 2853 3966 2637 4203 
Q 2422 4441 2034 4441 
Q 1650 4441 1433 4203 
Q 1216 3966 1216 3541 
Q 1216 3113 1433 2875 
Q 1650 2638 2034 2638 
Q 2422 2638 2637 2875 
Q 2853 3113 2853 3541 
z
M 2516 2484 
Q 3047 2413 3344 2092 
Q 3641 1772 3641 1275 
Q 3641 619 3225 264 
Q 2809 -91 2034 -91 
Q 1263 -91 845 264 
Q 428 619 428 1275 
Q 428 1772 725 2092 
Q 1022 2413 1556 2484 
Q 1084 2569 832 2842 
Q 581 3116 581 3541 
Q 581 4103 968 4426 
Q 1356 4750 2034 4750 
Q 2713 4750 3100 4426 
Q 3488 4103 3488 3541 
Q 3488 3116 3236 2842 
Q 2984 2569 2516 2484 
z
" id="BitstreamVeraSerif-Roman-38" transform="scale(0.015625)"/>
     </defs>
     <use xlink:href="#BitstreamVeraSerif-Roman-38"/>
    </g>
   </g>
   <g id="text_2">
    <!-- 4 -->
    <g transform="translate(112.982462 209.574428)scale(0.2 -0.2)">
     <defs>
      <path d="M 2234 1581 
L 2234 4063 
L 641 1581 
L 2234 1581 
z
M 3609 0 
L 1484 0 
L 1484 331 
L 2234 331 
L 2234 1247 
L 197 1247 
L 197 1588 
L 2241 4750 
L 2859 4750 
L 2859 1581 
L 3750 1581 
L 3750 1247 
L 2859 1247 
L 2859 331 
L 3609 331 
L 3609 0 
z
" id="BitstreamVeraSerif-Roman-34" transform="scale(0.015625)"/>
     </defs>
     <use xlink:href="#BitstreamVeraSerif-Roman-34"/>
    </g>
   </g>
   <g id="text_3">
    <!-- 2 -->
    <g transform="translate(178.295637 209.574428)scale(0.2 -0.2)">
     <defs>
      <path d="M 819 3553 
L 469 3553 
L 469 4384 
Q 803 4563 1142 4656 
Q 1481 4750 1806 4750 
Q 2534 4750 2956 4397 
Q 3378 4044 3378 3438 
Q 3378 2753 2422 1800 
Q 2347 1728 2309 1691 
L 1131 513 
L 3078 513 
L 3078 1088 
L 3444 1088 
L 3444 0 
L 434 0 
L 434 341 
L 1850 1753 
Q 2319 2222 2519 2614 
Q 2719 3006 2719 3438 
Q 2719 3909 2473 4175 
Q 2228 4441 1797 4441 
Q 1350 4441 1106 4219 
Q 863 3997 819 3553 
z
" id="BitstreamVeraSerif-Roman-32" transform="scale(0.015625)"/>
     </defs>
     <use xlink:href="#BitstreamVeraSerif-Roman-32"/>
    </g>
   </g>
   <g id="text_4">
    <!-- 5 -->
    <g transform="translate(227.280518 261.824968)scale(0.2 -0.2)">
     <defs>
      <path d="M 3219 4666 
L 3219 4153 
L 1081 4153 
L 1081 2816 
Q 1244 2928 1461 2984 
Q 1678 3041 1947 3041 
Q 2703 3041 3140 2622 
Q 3578 2203 3578 1478 
Q 3578 738 3136 323 
Q 2694 -91 1894 -91 
Q 1572 -91 1234 -12 
Q 897 66 544 225 
L 544 1131 
L 897 1131 
Q 925 688 1179 453 
Q 1434 219 1894 219 
Q 2388 219 2653 544 
Q 2919 869 2919 1478 
Q 2919 2084 2655 2407 
Q 2391 2731 1894 2731 
Q 1613 2731 1398 2631 
Q 1184 2531 1019 2322 
L 750 2322 
L 750 4666 
L 3219 4666 
z
" id="BitstreamVeraSerif-Roman-35" transform="scale(0.015625)"/>
     </defs>
     <use xlink:href="#BitstreamVeraSerif-Roman-35"/>
    </g>
   </g>
   <g id="text_5">
    <!-- 3 -->
    <g transform="translate(259.937106 261.824968)scale(0.2 -0.2)">
     <defs>
      <path d="M 622 4469 
Q 988 4606 1323 4678 
Q 1659 4750 1953 4750 
Q 2638 4750 3022 4454 
Q 3406 4159 3406 3634 
Q 3406 3213 3140 2930 
Q 2875 2647 2388 2547 
Q 2963 2466 3280 2130 
Q 3597 1794 3597 1259 
Q 3597 606 3158 257 
Q 2719 -91 1894 -91 
Q 1528 -91 1179 -12 
Q 831 66 488 225 
L 488 1131 
L 838 1131 
Q 869 681 1141 450 
Q 1413 219 1906 219 
Q 2384 219 2661 495 
Q 2938 772 2938 1253 
Q 2938 1803 2653 2086 
Q 2369 2369 1819 2369 
L 1522 2369 
L 1522 2688 
L 1678 2688 
Q 2225 2688 2498 2914 
Q 2772 3141 2772 3597 
Q 2772 4006 2547 4223 
Q 2322 4441 1900 4441 
Q 1478 4441 1245 4241 
Q 1013 4041 972 3647 
L 622 3647 
L 622 4469 
z
" id="BitstreamVeraSerif-Roman-33" transform="scale(0.015625)"/>
     </defs>
     <use xlink:href="#BitstreamVeraSerif-Roman-33"/>
    </g>
   </g>
   <g id="text_6">
    <!-- 7 -->
    <g transform="translate(308.921987 209.574428)scale(0.2 -0.2)">
     <defs>
      <path d="M 3609 4347 
L 1784 0 
L 1319 0 
L 3059 4153 
L 903 4153 
L 903 3578 
L 538 3578 
L 538 4666 
L 3609 4666 
L 3609 4347 
z
" id="BitstreamVeraSerif-Roman-37" transform="scale(0.015625)"/>
     </defs>
     <use xlink:href="#BitstreamVeraSerif-Roman-37"/>
    </g>
   </g>
   <g id="text_7">
    <!-- 9 -->
    <g transform="translate(374.235162 209.574428)scale(0.2 -0.2)">
     <defs>
      <path d="M 2994 2091 
Q 2784 1856 2512 1740 
Q 2241 1625 1900 1625 
Q 1206 1625 804 2044 
Q 403 2463 403 3188 
Q 403 3897 839 4323 
Q 1275 4750 2003 4750 
Q 2794 4750 3217 4161 
Q 3641 3572 3641 2478 
Q 3641 1253 3137 581 
Q 2634 -91 1722 -91 
Q 1475 -91 1203 -44 
Q 931 3 647 97 
L 647 872 
L 997 872 
Q 1038 556 1241 387 
Q 1444 219 1784 219 
Q 2391 219 2687 676 
Q 2984 1134 2994 2091 
z
M 1978 4441 
Q 1534 4441 1298 4117 
Q 1063 3794 1063 3188 
Q 1063 2581 1298 2256 
Q 1534 1931 1978 1931 
Q 2422 1931 2658 2245 
Q 2894 2559 2894 3150 
Q 2894 3772 2656 4106 
Q 2419 4441 1978 4441 
z
" id="BitstreamVeraSerif-Roman-39" transform="scale(0.015625)"/>
     </defs>
     <use xlink:href="#BitstreamVeraSerif-Roman-39"/>
    </g>
   </g>
   <g id="text_8">
    <!-- 0 -->
    <g transform="translate(439.548337 209.574428)scale(0.2 -0.2)">
     <defs>
      <path d="M 2034 219 
Q 2513 219 2750 744 
Q 2988 1269 2988 2328 
Q 2988 3391 2750 3916 
Q 2513 4441 2034 4441 
Q 1556 4441 1318 3916 
Q 1081 3391 1081 2328 
Q 1081 1269 1318 744 
Q 1556 219 2034 219 
z
M 2034 -91 
Q 1275 -91 848 546 
Q 422 1184 422 2328 
Q 422 3475 848 4112 
Q 1275 4750 2034 4750 
Q 2797 4750 3222 4112 
Q 3647 3475 3647 2328 
Q 3647 1184 3222 546 
Q 2797 -91 2034 -91 
z
" id="BitstreamVeraSerif-Roman-30" transform="scale(0.015625)"/>
     </defs>
     <use xlink:href="#BitstreamVeraSerif-Roman-30"/>
    </g>
   </g>
   <g id="text_9">
    <!-- 1 -->
    <g transform="translate(488.533218 261.824968)scale(0.2 -0.2)">
     <defs>
      <path d="M 909 0 
L 909 331 
L 1722 331 
L 1722 4213 
L 781 3603 
L 781 4013 
L 1919 4750 
L 2350 4750 
L 2350 331 
L 3163 331 
L 3163 0 
L 909 0 
z
" id="BitstreamVeraSerif-Roman-31" transform="scale(0.015625)"/>
     </defs>
     <use xlink:href="#BitstreamVeraSerif-Roman-31"/>
    </g>
   </g>
   <g id="text_10">
    <!-- 6 -->
    <g transform="translate(521.189806 261.824968)scale(0.2 -0.2)">
     <defs>
      <path d="M 2094 219 
Q 2534 219 2771 542 
Q 3009 866 3009 1472 
Q 3009 2078 2771 2401 
Q 2534 2725 2094 2725 
Q 1647 2725 1412 2412 
Q 1178 2100 1178 1509 
Q 1178 888 1415 553 
Q 1653 219 2094 219 
z
M 1075 2569 
Q 1288 2803 1556 2918 
Q 1825 3034 2163 3034 
Q 2859 3034 3264 2615 
Q 3669 2197 3669 1472 
Q 3669 763 3233 336 
Q 2797 -91 2069 -91 
Q 1278 -91 853 498 
Q 428 1088 428 2181 
Q 428 3406 931 4078 
Q 1434 4750 2350 4750 
Q 2597 4750 2869 4703 
Q 3141 4656 3425 4563 
L 3425 3794 
L 3072 3794 
Q 3034 4109 2831 4275 
Q 2628 4441 2284 4441 
Q 1678 4441 1381 3981 
Q 1084 3522 1075 2569 
z
" id="BitstreamVeraSerif-Roman-36" transform="scale(0.015625)"/>
     </defs>
     <use xlink:href="#BitstreamVeraSerif-Roman-36"/>
    </g>
   </g>
  </g>
 </g>
 <defs>
  <clipPath id="p489910baa2">
   <rect height="266.4" width="554.4" x="10.8" y="10.8"/>
  </clipPath>
 </defs>
</svg>
