<?xml version="1.0" encoding="utf-8" standalone="no"?>
<!DOCTYPE svg PUBLIC "-//W3C//DTD SVG 1.1//EN"
  "http://www.w3.org/Graphics/SVG/1.1/DTD/svg11.dtd">
<svg height="360pt" version="1.1" viewBox="0 0 360 360" width="360pt" xmlns="http://www.w3.org/2000/svg" xmlns:xlink="http://www.w3.org/1999/xlink">
 <metadata>
  <rdf:RDF xmlns:cc="http://creativecommons.org/ns#" xmlns:dc="http://purl.org/dc/elements/1.1/" xmlns:rdf="http://www.w3.org/1999/02/22-rdf-syntax-ns#">
   <cc:Work>
    <dc:type rdf:resource="http://purl.org/dc/dcmitype/StillImage"/>
    <dc:date>2021-06-19T00:34:43.733393</dc:date>
    <dc:format>image/svg+xml</dc:format>
    <dc:creator>
     <cc:Agent>
      <dc:title>Matplotlib v3.4.2, https://matplotlib.org/</dc:title>
     </cc:Agent>
    </dc:creator>
   </cc:Work>
  </rdf:RDF>
 </metadata>
 <defs>
  <style type="text/css">*{stroke-linecap:butt;stroke-linejoin:round;}</style>
 </defs>
 <g id="figure_1">
  <g id="patch_1">
   <path d="M 0 360
L 360 360
L 360 0
L 0 0
z
" style="fill:none;"/>
  </g>
  <g id="axes_1">
   <g id="patch_2">
    <path clip-path="url(#pe576234d8f)" d="M 49.125 204.628269
C 49.125 204.628269 49.125 204.628269 49.125 204.628269
C 49.125 204.628269 49.125 204.628269 49.125 204.628269
C 49.125 204.628269 49.125 204.628269 49.125 204.628269
C 49.125 204.628269 49.125 204.628269 49.125 204.628269
C 49.125 204.628269 49.125 204.628269 49.125 204.628269
C 49.125 204.628269 49.125 204.628269 49.125 204.628269
C 49.125 204.628269 49.125 204.628269 49.125 204.628269
C 49.125 204.628269 49.125 204.628269 49.125 204.628269
z
" style="fill:none;stroke:#0000ff;stroke-linejoin:miter;"/>
   </g>
   <g id="patch_3">
    <path clip-path="url(#pe576234d8f)" d="M 108.458852 190.879202
C 108.458852 190.879202 108.458852 190.879202 108.458852 190.879202
C 108.458852 190.879202 108.458852 190.879202 108.458852 190.879202
C 108.458852 190.879202 108.458852 190.879202 108.458852 190.879202
C 108.458852 190.879202 108.458852 190.879202 108.458852 190.879202
C 108.458852 190.879202 108.458852 190.879202 108.458852 190.879202
C 108.458852 190.879202 108.458852 190.879202 108.458852 190.879202
C 108.458852 190.879202 108.458852 190.879202 108.458852 190.879202
C 108.458852 190.879202 108.458852 190.879202 108.458852 190.879202
z
" style="fill:none;stroke:#0000ff;stroke-linejoin:miter;"/>
   </g>
   <g id="patch_4">
    <path clip-path="url(#pe576234d8f)" d="M 78.791926 233.211922
C 86.811859 233.211922 94.504395 229.475824 100.175344 222.82646
C 105.846293 216.177096 109.032646 207.157357 109.032646 197.753735
C 109.032646 188.350114 105.846293 179.330375 100.175344 172.681011
C 94.504395 166.031647 86.811859 162.295549 78.791926 162.295549
C 70.771994 162.295549 63.079457 166.031647 57.408509 172.681011
C 51.73756 179.330375 48.551207 188.350114 48.551207 197.753735
C 48.551207 207.157357 51.73756 216.177096 57.408509 222.82646
C 63.079457 229.475824 70.771994 233.211922 78.791926 233.211922
z
" style="fill:none;stroke:#000000;stroke-linejoin:miter;"/>
   </g>
   <g id="patch_5">
    <path clip-path="url(#pe576234d8f)" d="M 216.610183 253.237837
C 216.610183 253.237837 216.610183 253.237837 216.610183 253.237837
C 216.610183 253.237837 216.610183 253.237837 216.610183 253.237837
C 216.610183 253.237837 216.610183 253.237837 216.610183 253.237837
C 216.610183 253.237837 216.610183 253.237837 216.610183 253.237837
C 216.610183 253.237837 216.610183 253.237837 216.610183 253.237837
C 216.610183 253.237837 216.610183 253.237837 216.610183 253.237837
C 216.610183 253.237837 216.610183 253.237837 216.610183 253.237837
C 216.610183 253.237837 216.610183 253.237837 216.610183 253.237837
z
" style="fill:none;stroke:#0000ff;stroke-linejoin:miter;"/>
   </g>
   <g id="patch_6">
    <path clip-path="url(#pe576234d8f)" d="M 236.466438 258.4855
C 236.466438 258.4855 236.466438 258.4855 236.466438 258.4855
C 236.466438 258.4855 236.466438 258.4855 236.466438 258.4855
C 236.466438 258.4855 236.466438 258.4855 236.466438 258.4855
C 236.466438 258.4855 236.466438 258.4855 236.466438 258.4855
C 236.466438 258.4855 236.466438 258.4855 236.466438 258.4855
C 236.466438 258.4855 236.466438 258.4855 236.466438 258.4855
C 236.466438 258.4855 236.466438 258.4855 236.466438 258.4855
C 236.466438 258.4855 236.466438 258.4855 236.466438 258.4855
z
" style="fill:none;stroke:#0000ff;stroke-linejoin:miter;"/>
   </g>
   <g id="patch_7">
    <path clip-path="url(#pe576234d8f)" d="M 284.345585 313.075121
C 284.345585 313.075121 284.345585 313.075121 284.345585 313.075121
C 284.345585 313.075121 284.345585 313.075121 284.345585 313.075121
C 284.345585 313.075121 284.345585 313.075121 284.345585 313.075121
C 284.345585 313.075121 284.345585 313.075121 284.345585 313.075121
C 284.345585 313.075121 284.345585 313.075121 284.345585 313.075121
C 284.345585 313.075121 284.345585 313.075121 284.345585 313.075121
C 284.345585 313.075121 284.345585 313.075121 284.345585 313.075121
C 284.345585 313.075121 284.345585 313.075121 284.345585 313.075121
z
" style="fill:none;stroke:#0000ff;stroke-linejoin:miter;"/>
   </g>
   <g id="patch_8">
    <path clip-path="url(#pe576234d8f)" d="M 260.406012 324.932906
C 269.261546 324.932906 277.755572 320.807542 284.01738 313.465377
C 290.279188 306.123211 293.797529 296.1637 293.797529 285.78031
C 293.797529 275.39692 290.279188 265.437409 284.01738 258.095244
C 277.755572 250.753079 269.261546 246.627714 260.406012 246.627714
C 251.550478 246.627714 243.056451 250.753079 236.794643 258.095244
C 230.532835 265.437409 227.014494 275.39692 227.014494 285.78031
C 227.014494 296.1637 230.532835 306.123211 236.794643 313.465377
C 243.056451 320.807542 251.550478 324.932906 260.406012 324.932906
z
" style="fill:none;stroke:#000000;stroke-linejoin:miter;"/>
   </g>
   <g id="patch_9">
    <path clip-path="url(#pe576234d8f)" d="M 245.807402 334.065891
C 259.18212 334.065891 272.010845 327.835258 281.468198 316.746215
C 290.925552 305.657173 296.239384 290.615093 296.239384 274.932819
C 296.239384 259.250545 290.925552 244.208465 281.468198 233.119423
C 272.010845 222.030381 259.18212 215.799747 245.807402 215.799747
C 232.432684 215.799747 219.60396 222.030381 210.146606 233.119423
C 200.689252 244.208465 195.375421 259.250545 195.375421 274.932819
C 195.375421 290.615093 200.689252 305.657173 210.146606 316.746215
C 219.60396 327.835258 232.432684 334.065891 245.807402 334.065891
z
" style="fill:none;stroke:#000000;stroke-linejoin:miter;"/>
   </g>
   <g id="patch_10">
    <path clip-path="url(#pe576234d8f)" d="M 86.782181 144.533393
C 86.782181 144.533393 86.782181 144.533393 86.782181 144.533393
C 86.782181 144.533393 86.782181 144.533393 86.782181 144.533393
C 86.782181 144.533393 86.782181 144.533393 86.782181 144.533393
C 86.782181 144.533393 86.782181 144.533393 86.782181 144.533393
C 86.782181 144.533393 86.782181 144.533393 86.782181 144.533393
C 86.782181 144.533393 86.782181 144.533393 86.782181 144.533393
C 86.782181 144.533393 86.782181 144.533393 86.782181 144.533393
C 86.782181 144.533393 86.782181 144.533393 86.782181 144.533393
z
" style="fill:none;stroke:#0000ff;stroke-linejoin:miter;"/>
   </g>
   <g id="patch_11">
    <path clip-path="url(#pe576234d8f)" d="M 57.678437 42.080557
C 57.678437 42.080557 57.678437 42.080557 57.678437 42.080557
C 57.678437 42.080557 57.678437 42.080557 57.678437 42.080557
C 57.678437 42.080557 57.678437 42.080557 57.678437 42.080557
C 57.678437 42.080557 57.678437 42.080557 57.678437 42.080557
C 57.678437 42.080557 57.678437 42.080557 57.678437 42.080557
C 57.678437 42.080557 57.678437 42.080557 57.678437 42.080557
C 57.678437 42.080557 57.678437 42.080557 57.678437 42.080557
C 57.678437 42.080557 57.678437 42.080557 57.678437 42.080557
z
" style="fill:none;stroke:#0000ff;stroke-linejoin:miter;"/>
   </g>
   <g id="patch_12">
    <path clip-path="url(#pe576234d8f)" d="M 72.230309 147.300267
C 84.442512 147.300267 96.156178 141.611193 104.791509 131.485998
C 113.426841 121.360802 118.2788 107.626163 118.2788 93.306975
C 118.2788 78.987786 113.426841 65.253147 104.791509 55.127951
C 96.156178 45.002756 84.442512 39.313682 72.230309 39.313682
C 60.018107 39.313682 48.30444 45.002756 39.669109 55.127951
C 31.033778 65.253147 26.181818 78.987786 26.181818 93.306975
C 26.181818 107.626163 31.033778 121.360802 39.669109 131.485998
C 48.30444 141.611193 60.018107 147.300267 72.230309 147.300267
z
" style="fill:none;stroke:#000000;stroke-linejoin:miter;"/>
   </g>
   <g id="patch_13">
    <path clip-path="url(#pe576234d8f)" d="M 282.097524 158.818917
C 282.097524 158.818917 282.097524 158.818917 282.097524 158.818917
C 282.097524 158.818917 282.097524 158.818917 282.097524 158.818917
C 282.097524 158.818917 282.097524 158.818917 282.097524 158.818917
C 282.097524 158.818917 282.097524 158.818917 282.097524 158.818917
C 282.097524 158.818917 282.097524 158.818917 282.097524 158.818917
C 282.097524 158.818917 282.097524 158.818917 282.097524 158.818917
C 282.097524 158.818917 282.097524 158.818917 282.097524 158.818917
C 282.097524 158.818917 282.097524 158.818917 282.097524 158.818917
z
" style="fill:none;stroke:#0000ff;stroke-linejoin:miter;"/>
   </g>
   <g id="patch_14">
    <path clip-path="url(#pe576234d8f)" d="M 283.472563 111.035669
C 283.472563 111.035669 283.472563 111.035669 283.472563 111.035669
C 283.472563 111.035669 283.472563 111.035669 283.472563 111.035669
C 283.472563 111.035669 283.472563 111.035669 283.472563 111.035669
C 283.472563 111.035669 283.472563 111.035669 283.472563 111.035669
C 283.472563 111.035669 283.472563 111.035669 283.472563 111.035669
C 283.472563 111.035669 283.472563 111.035669 283.472563 111.035669
C 283.472563 111.035669 283.472563 111.035669 283.472563 111.035669
C 283.472563 111.035669 283.472563 111.035669 283.472563 111.035669
z
" style="fill:none;stroke:#0000ff;stroke-linejoin:miter;"/>
   </g>
   <g id="patch_15">
    <path clip-path="url(#pe576234d8f)" d="M 256.798397 34.453967
C 256.798397 34.453967 256.798397 34.453967 256.798397 34.453967
C 256.798397 34.453967 256.798397 34.453967 256.798397 34.453967
C 256.798397 34.453967 256.798397 34.453967 256.798397 34.453967
C 256.798397 34.453967 256.798397 34.453967 256.798397 34.453967
C 256.798397 34.453967 256.798397 34.453967 256.798397 34.453967
C 256.798397 34.453967 256.798397 34.453967 256.798397 34.453967
C 256.798397 34.453967 256.798397 34.453967 256.798397 34.453967
C 256.798397 34.453967 256.798397 34.453967 256.798397 34.453967
z
" style="fill:none;stroke:#0000ff;stroke-linejoin:miter;"/>
   </g>
   <g id="patch_16">
    <path clip-path="url(#pe576234d8f)" d="M 270.13548 114.105922
C 279.490534 114.105922 288.463689 109.747855 295.078711 101.991535
C 301.693734 94.235215 305.410536 83.713911 305.410536 72.744818
C 305.410536 61.775725 301.693734 51.254421 295.078711 43.498101
C 288.463689 35.741781 279.490534 31.383715 270.13548 31.383715
C 260.780426 31.383715 251.807271 35.741781 245.192249 43.498101
C 238.577227 51.254421 234.860424 61.775725 234.860424 72.744818
C 234.860424 83.713911 238.577227 94.235215 245.192249 101.991535
C 251.807271 109.747855 260.780426 114.105922 270.13548 114.105922
z
" style="fill:none;stroke:#000000;stroke-linejoin:miter;"/>
   </g>
   <g id="patch_17">
    <path clip-path="url(#pe576234d8f)" d="M 274.122828 171.430849
C 289.954221 171.430849 305.139332 164.05577 316.333817 150.929887
C 327.528303 137.804003 333.818182 119.998987 333.818182 101.436185
C 333.818182 82.873382 327.528303 65.068366 316.333817 51.942482
C 305.139332 38.816599 289.954221 31.44152 274.122828 31.44152
C 258.291435 31.44152 243.106324 38.816599 231.911838 51.942482
C 220.717353 65.068366 214.427474 82.873382 214.427474 101.436185
C 214.427474 119.998987 220.717353 137.804003 231.911838 150.929887
C 243.106324 164.05577 258.291435 171.430849 274.122828 171.430849
z
" style="fill:none;stroke:#000000;stroke-linejoin:miter;"/>
   </g>
   <g id="line2d_1">
    <defs>
     <path d="M 0 3
C 0.795609 3 1.55874 2.683901 2.12132 2.12132
C 2.683901 1.55874 3 0.795609 3 0
C 3 -0.795609 2.683901 -1.55874 2.12132 -2.12132
C 1.55874 -2.683901 0.795609 -3 0 -3
C -0.795609 -3 -1.55874 -2.683901 -2.12132 -2.12132
C -2.683901 -1.55874 -3 -0.795609 -3 0
C -3 0.795609 -2.683901 1.55874 -2.12132 2.12132
C -1.55874 2.683901 -0.795609 3 0 3
z
" id="m26b252a1c9" style="stroke:#000000;"/>
    </defs>
    <g clip-path="url(#pe576234d8f)">
     <use style="stroke:#000000;" x="282.097524" xlink:href="#m26b252a1c9" y="158.818917"/>
     <use style="stroke:#000000;" x="283.472563" xlink:href="#m26b252a1c9" y="111.035669"/>
     <use style="stroke:#000000;" x="216.610183" xlink:href="#m26b252a1c9" y="253.237837"/>
     <use style="stroke:#000000;" x="284.345585" xlink:href="#m26b252a1c9" y="313.075121"/>
     <use style="stroke:#000000;" x="108.458852" xlink:href="#m26b252a1c9" y="190.879202"/>
     <use style="stroke:#000000;" x="236.466438" xlink:href="#m26b252a1c9" y="258.4855"/>
     <use style="stroke:#000000;" x="256.798397" xlink:href="#m26b252a1c9" y="34.453967"/>
     <use style="stroke:#000000;" x="86.782181" xlink:href="#m26b252a1c9" y="144.533393"/>
     <use style="stroke:#000000;" x="49.125" xlink:href="#m26b252a1c9" y="204.628269"/>
     <use style="stroke:#000000;" x="57.678437" xlink:href="#m26b252a1c9" y="42.080557"/>
    </g>
   </g>
   <g id="text_1">
    <!-- 8 -->
    <g style="fill:#ff0000;" transform="translate(49.125 193.223046)scale(0.15 -0.15)">
     <defs>
      <path d="M 2981 1275
Q 2981 1775 2732 2051
Q 2484 2328 2034 2328
Q 1584 2328 1336 2051
Q 1088 1775 1088 1275
Q 1088 772 1336 495
Q 1584 219 2034 219
Q 2484 219 2732 495
Q 2981 772 2981 1275
z
M 2853 3541
Q 2853 3966 2637 4203
Q 2422 4441 2034 4441
Q 1650 4441 1433 4203
Q 1216 3966 1216 3541
Q 1216 3113 1433 2875
Q 1650 2638 2034 2638
Q 2422 2638 2637 2875
Q 2853 3113 2853 3541
z
M 2516 2484
Q 3047 2413 3344 2092
Q 3641 1772 3641 1275
Q 3641 619 3225 264
Q 2809 -91 2034 -91
Q 1263 -91 845 264
Q 428 619 428 1275
Q 428 1772 725 2092
Q 1022 2413 1556 2484
Q 1084 2569 832 2842
Q 581 3116 581 3541
Q 581 4103 968 4426
Q 1356 4750 2034 4750
Q 2713 4750 3100 4426
Q 3488 4103 3488 3541
Q 3488 3116 3236 2842
Q 2984 2569 2516 2484
z
" id="BitstreamVeraSerif-Roman-38" transform="scale(0.015625)"/>
     </defs>
     <use xlink:href="#BitstreamVeraSerif-Roman-38"/>
    </g>
   </g>
   <g id="text_2">
    <!-- 4 -->
    <g style="fill:#ff0000;" transform="translate(108.458852 179.473979)scale(0.15 -0.15)">
     <defs>
      <path d="M 2234 1581
L 2234 4063
L 641 1581
L 2234 1581
z
M 3609 0
L 1484 0
L 1484 331
L 2234 331
L 2234 1247
L 197 1247
L 197 1588
L 2241 4750
L 2859 4750
L 2859 1581
L 3750 1581
L 3750 1247
L 2859 1247
L 2859 331
L 3609 331
L 3609 0
z
" id="BitstreamVeraSerif-Roman-34" transform="scale(0.015625)"/>
     </defs>
     <use xlink:href="#BitstreamVeraSerif-Roman-34"/>
    </g>
   </g>
   <g id="text_3">
    <!-- 2 -->
    <g style="fill:#ff0000;" transform="translate(216.610183 241.832615)scale(0.15 -0.15)">
     <defs>
      <path d="M 819 3553
L 469 3553
L 469 4384
Q 803 4563 1142 4656
Q 1481 4750 1806 4750
Q 2534 4750 2956 4397
Q 3378 4044 3378 3438
Q 3378 2753 2422 1800
Q 2347 1728 2309 1691
L 1131 513
L 3078 513
L 3078 1088
L 3444 1088
L 3444 0
L 434 0
L 434 341
L 1850 1753
Q 2319 2222 2519 2614
Q 2719 3006 2719 3438
Q 2719 3909 2473 4175
Q 2228 4441 1797 4441
Q 1350 4441 1106 4219
Q 863 3997 819 3553
z
" id="BitstreamVeraSerif-Roman-32" transform="scale(0.015625)"/>
     </defs>
     <use xlink:href="#BitstreamVeraSerif-Roman-32"/>
    </g>
   </g>
   <g id="text_4">
    <!-- 5 -->
    <g style="fill:#ff0000;" transform="translate(226.739428 247.080277)scale(0.15 -0.15)">
     <defs>
      <path d="M 3219 4666
L 3219 4153
L 1081 4153
L 1081 2816
Q 1244 2928 1461 2984
Q 1678 3041 1947 3041
Q 2703 3041 3140 2622
Q 3578 2203 3578 1478
Q 3578 738 3136 323
Q 2694 -91 1894 -91
Q 1572 -91 1234 -12
Q 897 66 544 225
L 544 1131
L 897 1131
Q 925 688 1179 453
Q 1434 219 1894 219
Q 2388 219 2653 544
Q 2919 869 2919 1478
Q 2919 2084 2655 2407
Q 2391 2731 1894 2731
Q 1613 2731 1398 2631
Q 1184 2531 1019 2322
L 750 2322
L 750 4666
L 3219 4666
z
" id="BitstreamVeraSerif-Roman-35" transform="scale(0.015625)"/>
     </defs>
     <use xlink:href="#BitstreamVeraSerif-Roman-35"/>
    </g>
   </g>
   <g id="text_5">
    <!-- 3 -->
    <g style="fill:#ff0000;" transform="translate(284.345585 301.669898)scale(0.15 -0.15)">
     <defs>
      <path d="M 622 4469
Q 988 4606 1323 4678
Q 1659 4750 1953 4750
Q 2638 4750 3022 4454
Q 3406 4159 3406 3634
Q 3406 3213 3140 2930
Q 2875 2647 2388 2547
Q 2963 2466 3280 2130
Q 3597 1794 3597 1259
Q 3597 606 3158 257
Q 2719 -91 1894 -91
Q 1528 -91 1179 -12
Q 831 66 488 225
L 488 1131
L 838 1131
Q 869 681 1141 450
Q 1413 219 1906 219
Q 2384 219 2661 495
Q 2938 772 2938 1253
Q 2938 1803 2653 2086
Q 2369 2369 1819 2369
L 1522 2369
L 1522 2688
L 1678 2688
Q 2225 2688 2498 2914
Q 2772 3141 2772 3597
Q 2772 4006 2547 4223
Q 2322 4441 1900 4441
Q 1478 4441 1245 4241
Q 1013 4041 972 3647
L 622 3647
L 622 4469
z
" id="BitstreamVeraSerif-Roman-33" transform="scale(0.015625)"/>
     </defs>
     <use xlink:href="#BitstreamVeraSerif-Roman-33"/>
    </g>
   </g>
   <g id="text_6">
    <!-- 7 -->
    <g style="fill:#ff0000;" transform="translate(86.782181 133.12817)scale(0.15 -0.15)">
     <defs>
      <path d="M 3609 4347
L 1784 0
L 1319 0
L 3059 4153
L 903 4153
L 903 3578
L 538 3578
L 538 4666
L 3609 4666
L 3609 4347
z
" id="BitstreamVeraSerif-Roman-37" transform="scale(0.015625)"/>
     </defs>
     <use xlink:href="#BitstreamVeraSerif-Roman-37"/>
    </g>
   </g>
   <g id="text_7">
    <!-- 9 -->
    <g style="fill:#ff0000;" transform="translate(57.678437 30.675334)scale(0.15 -0.15)">
     <defs>
      <path d="M 2994 2091
Q 2784 1856 2512 1740
Q 2241 1625 1900 1625
Q 1206 1625 804 2044
Q 403 2463 403 3188
Q 403 3897 839 4323
Q 1275 4750 2003 4750
Q 2794 4750 3217 4161
Q 3641 3572 3641 2478
Q 3641 1253 3137 581
Q 2634 -91 1722 -91
Q 1475 -91 1203 -44
Q 931 3 647 97
L 647 872
L 997 872
Q 1038 556 1241 387
Q 1444 219 1784 219
Q 2391 219 2687 676
Q 2984 1134 2994 2091
z
M 1978 4441
Q 1534 4441 1298 4117
Q 1063 3794 1063 3188
Q 1063 2581 1298 2256
Q 1534 1931 1978 1931
Q 2422 1931 2658 2245
Q 2894 2559 2894 3150
Q 2894 3772 2656 4106
Q 2419 4441 1978 4441
z
" id="BitstreamVeraSerif-Roman-39" transform="scale(0.015625)"/>
     </defs>
     <use xlink:href="#BitstreamVeraSerif-Roman-39"/>
    </g>
   </g>
   <g id="text_8">
    <!-- 0 -->
    <g style="fill:#ff0000;" transform="translate(282.097524 147.413694)scale(0.15 -0.15)">
     <defs>
      <path d="M 2034 219
Q 2513 219 2750 744
Q 2988 1269 2988 2328
Q 2988 3391 2750 3916
Q 2513 4441 2034 4441
Q 1556 4441 1318 3916
Q 1081 3391 1081 2328
Q 1081 1269 1318 744
Q 1556 219 2034 219
z
M 2034 -91
Q 1275 -91 848 546
Q 422 1184 422 2328
Q 422 3475 848 4112
Q 1275 4750 2034 4750
Q 2797 4750 3222 4112
Q 3647 3475 3647 2328
Q 3647 1184 3222 546
Q 2797 -91 2034 -91
z
" id="BitstreamVeraSerif-Roman-30" transform="scale(0.015625)"/>
     </defs>
     <use xlink:href="#BitstreamVeraSerif-Roman-30"/>
    </g>
   </g>
   <g id="text_9">
    <!-- 1 -->
    <g style="fill:#ff0000;" transform="translate(288.336068 102.481753)scale(0.15 -0.15)">
     <defs>
      <path d="M 909 0
L 909 331
L 1722 331
L 1722 4213
L 781 3603
L 781 4013
L 1919 4750
L 2350 4750
L 2350 331
L 3163 331
L 3163 0
L 909 0
z
" id="BitstreamVeraSerif-Roman-31" transform="scale(0.015625)"/>
     </defs>
     <use xlink:href="#BitstreamVeraSerif-Roman-31"/>
    </g>
   </g>
   <g id="text_10">
    <!-- 6 -->
    <g style="fill:#ff0000;" transform="translate(256.798397 23.048745)scale(0.15 -0.15)">
     <defs>
      <path d="M 2094 219
Q 2534 219 2771 542
Q 3009 866 3009 1472
Q 3009 2078 2771 2401
Q 2534 2725 2094 2725
Q 1647 2725 1412 2412
Q 1178 2100 1178 1509
Q 1178 888 1415 553
Q 1653 219 2094 219
z
M 1075 2569
Q 1288 2803 1556 2918
Q 1825 3034 2163 3034
Q 2859 3034 3264 2615
Q 3669 2197 3669 1472
Q 3669 763 3233 336
Q 2797 -91 2069 -91
Q 1278 -91 853 498
Q 428 1088 428 2181
Q 428 3406 931 4078
Q 1434 4750 2350 4750
Q 2597 4750 2869 4703
Q 3141 4656 3425 4563
L 3425 3794
L 3072 3794
Q 3034 4109 2831 4275
Q 2628 4441 2284 4441
Q 1678 4441 1381 3981
Q 1084 3522 1075 2569
z
" id="BitstreamVeraSerif-Roman-36" transform="scale(0.015625)"/>
     </defs>
     <use xlink:href="#BitstreamVeraSerif-Roman-36"/>
    </g>
   </g>
  </g>
 </g>
 <defs>
  <clipPath id="pe576234d8f">
   <rect height="332.950394" width="338.4" x="10.8" y="16.249606"/>
  </clipPath>
 </defs>
</svg>
